<svg width="200" height="200" viewBox="0 0 200 200" fill="none" xmlns="http://www.w3.org/2000/svg">
<g clip-path="url(#clip0_270_6869)">
<path d="M9.76653e-08 105.556C-0.000563933 117.959 2.4419 130.24 7.18792 141.699C11.9339 153.158 18.8906 163.57 27.6606 172.341C36.4307 181.111 46.8423 188.068 58.3011 192.815C69.7599 197.561 82.0415 200.004 94.4444 200.004C106.847 200.004 119.129 197.561 130.588 192.815C142.047 188.068 152.458 181.111 161.228 172.341C169.998 163.57 176.955 153.158 181.701 141.699C186.447 130.24 188.889 117.959 188.889 105.556C188.889 93.1527 186.447 80.8711 181.701 69.412C176.955 57.953 169.998 47.541 161.228 38.7706C152.458 30.0002 142.047 23.043 130.588 18.2965C119.129 13.55 106.847 11.1069 94.4444 11.1069C82.0415 11.1069 69.7599 13.55 58.3011 18.2965C46.8423 23.043 36.4307 30.0002 27.6606 38.7706C18.8906 47.541 11.9339 57.953 7.18792 69.412C2.4419 80.8711 -0.000563933 93.1527 9.76653e-08 105.556Z" fill="#FFCC4D"/>
<path d="M88.8833 144.444C88.8831 146.269 89.1704 148.075 89.7287 149.76C90.287 151.445 91.1054 152.977 92.1371 154.267C93.1689 155.556 94.3939 156.58 95.742 157.278C97.0902 157.976 98.5352 158.335 99.9944 158.335C101.454 158.335 102.899 157.976 104.247 157.278C105.595 156.58 106.82 155.556 107.852 154.267C108.883 152.977 109.702 151.445 110.26 149.76C110.818 148.075 111.106 146.269 111.106 144.444C111.106 142.62 110.818 140.814 110.26 139.129C109.702 137.444 108.883 135.912 107.852 134.622C106.82 133.332 105.595 132.309 104.247 131.611C102.899 130.913 101.454 130.554 99.9944 130.554C98.5352 130.554 97.0902 130.913 95.742 131.611C94.3939 132.309 93.1689 133.332 92.1371 134.622C91.1054 135.912 90.287 137.444 89.7287 139.129C89.1704 140.814 88.8831 142.62 88.8833 144.444Z" fill="#664500"/>
<path d="M45.0611 118.794C44.0682 118.793 43.0938 118.526 42.2393 118.021C41.3847 117.515 40.6812 116.79 40.2019 115.921C39.7226 115.051 39.4851 114.069 39.5141 113.077C39.5431 112.084 39.8375 111.118 40.3666 110.278C45.4555 102.206 60.9277 88.4 83.0889 93.8223C84.4905 94.1997 85.6888 95.1108 86.4272 96.3606C87.1656 97.6103 87.3856 99.0994 87.04 100.509C86.6945 101.919 85.8108 103.138 84.5782 103.904C83.3455 104.671 81.8618 104.925 80.4444 104.611C60.4222 99.7112 49.8777 116.033 49.7722 116.2C49.2704 116.996 48.5751 117.651 47.7511 118.105C46.9272 118.558 46.0017 118.796 45.0611 118.794ZM111.578 98.0056C110.431 98.0065 109.313 97.6528 108.375 96.9929C107.438 96.333 106.728 95.3992 106.342 94.3197C105.956 93.2402 105.914 92.0677 106.22 90.9631C106.527 89.8585 107.168 88.8759 108.056 88.15C125.7 73.6834 145.622 79.4723 153.694 84.5612C154.942 85.345 155.828 86.5925 156.156 88.0293C156.484 89.466 156.228 90.9743 155.444 92.2223C154.661 93.4703 153.413 94.3558 151.976 94.6839C150.54 95.0121 149.031 94.7561 147.783 93.9723C147.017 93.5056 130.828 83.8445 115.094 96.7445C114.105 97.5615 112.861 98.0075 111.578 98.0056Z" fill="#664500"/>
<path d="M74.1445 173.739C73.5004 173.739 72.8651 173.59 72.2883 173.303C71.7116 173.017 71.2091 172.6 70.8205 172.087C70.4318 171.573 70.1675 170.977 70.0483 170.344C69.929 169.711 69.9582 169.059 70.1333 168.439C72.5611 159.883 71.5667 151.611 67.4111 145.739C64.65 141.839 60.7167 139.456 56.6167 139.195C54.3167 139.056 52.5722 137.072 52.7167 134.778C52.8611 132.483 54.8333 130.606 57.1333 130.883C63.7611 131.295 69.9833 134.956 74.2056 140.922C79.8222 148.861 81.2611 159.717 78.1444 170.706C77.8989 171.578 77.3754 172.346 76.6534 172.893C75.9314 173.441 75.0505 173.738 74.1445 173.739ZM135.461 156.733C134.647 156.734 133.851 156.495 133.172 156.045C126.689 151.767 123.061 144.283 123.217 135.517C123.378 126.433 127.711 118 134.239 114.022C134.706 113.737 135.225 113.547 135.765 113.462C136.306 113.378 136.858 113.401 137.39 113.531C137.921 113.66 138.422 113.894 138.864 114.217C139.305 114.541 139.678 114.949 139.961 115.417C140.246 115.884 140.437 116.402 140.521 116.943C140.606 117.484 140.582 118.036 140.453 118.568C140.323 119.099 140.09 119.6 139.766 120.041C139.442 120.483 139.035 120.856 138.567 121.139C134.483 123.628 131.656 129.467 131.544 135.661C131.433 141.522 133.706 146.417 137.756 149.089C138.503 149.582 139.072 150.304 139.378 151.146C139.683 151.988 139.709 152.906 139.452 153.765C139.194 154.623 138.667 155.375 137.948 155.91C137.229 156.444 136.357 156.733 135.461 156.733Z" fill="#E2A62D"/>
<path d="M95.4389 15.1111C95.1544 14.8311 94.7852 14.6533 94.3889 14.6055C94.3889 14.6055 5.92225 -2.18893 2.09447 1.18885C-1.72775 4.57218 4.11114 94.4333 4.11114 94.4333C4.13892 94.8833 4.23892 95.2666 4.48336 95.5389C7.83892 99.3389 30.9167 84.4055 56.0334 62.2C81.1556 39.9888 98.7945 18.9111 95.4389 15.1111Z" fill="#DD2E44"/>
<path d="M1.93889 1.50566C1.83853 1.72306 1.76754 1.95286 1.72778 2.18899C2.61112 9.80566 11.1445 72.4779 16.4611 92.0668C24.4389 87.6057 32.5445 81.5445 42.0667 73.9945C33.9778 59.189 6.43334 0.811211 1.93889 1.50566Z" fill="#EA596E"/>
<path d="M166.122 162.383L107.383 155.144C101.106 154.578 90.0666 154.522 90.6333 144.578C91.15 135.561 101.967 136.95 109.961 138.133L169.061 147.989L166.122 162.383Z" fill="#3B88C3"/>
<path d="M169.056 147.994L145.6 143.972C142.856 143.478 140.411 147.567 140.289 151.894C140.15 156.705 141.55 159.139 144.322 159.705L167.344 162.55L169.056 147.994Z" fill="#88C9F9"/>
<path d="M193.989 146.339L179.422 159.733L153.383 131.417L167.95 118.022C171.603 114.682 176.43 112.923 181.375 113.13C186.321 113.338 190.983 115.494 194.344 119.128L195.094 119.944C198.433 123.598 200.191 128.424 199.984 133.37C199.777 138.315 197.622 142.977 193.989 146.339Z" fill="#3B88C3"/>
<path d="M155.067 155.998C156.777 157.858 158.762 159.43 160.911 160.624C163.06 161.819 165.33 162.613 167.591 162.96C169.851 163.308 172.059 163.203 174.088 162.65C176.117 162.098 177.927 161.11 179.414 159.742C180.902 158.374 182.039 156.653 182.759 154.678C183.479 152.703 183.769 150.511 183.612 148.229C183.455 145.947 182.854 143.619 181.844 141.378C180.833 139.137 179.433 137.026 177.724 135.167C176.014 133.307 174.028 131.735 171.88 130.541C169.731 129.346 167.461 128.553 165.2 128.205C162.939 127.857 160.732 127.962 158.703 128.515C156.674 129.067 154.864 130.055 153.376 131.423C151.889 132.791 150.752 134.512 150.032 136.487C149.312 138.462 149.022 140.654 149.179 142.936C149.336 145.218 149.937 147.546 150.947 149.787C151.957 152.029 153.357 154.139 155.067 155.998Z" fill="#88C9F9"/>
<path d="M160.731 150.79C161.757 151.906 162.919 152.876 164.151 153.645C165.384 154.414 166.662 154.967 167.913 155.273C169.165 155.578 170.365 155.63 171.444 155.425C172.524 155.22 173.463 154.762 174.207 154.078C174.951 153.394 175.485 152.497 175.78 151.438C176.075 150.38 176.124 149.18 175.924 147.907C175.725 146.634 175.281 145.314 174.618 144.022C173.955 142.729 173.085 141.49 172.06 140.375C171.034 139.259 169.872 138.289 168.64 137.52C167.407 136.751 166.129 136.198 164.878 135.892C163.626 135.587 162.426 135.535 161.346 135.74C160.267 135.945 159.328 136.403 158.584 137.087C157.84 137.771 157.306 138.668 157.011 139.727C156.716 140.786 156.667 141.986 156.866 143.258C157.066 144.531 157.51 145.851 158.173 147.143C158.836 148.436 159.705 149.675 160.731 150.79Z" fill="#226699"/>
<path d="M5.55554 186.111C5.55554 187.206 5.77109 188.289 6.18988 189.3C6.60867 190.311 7.2225 191.23 7.99632 192.004C8.77014 192.778 9.6888 193.391 10.6998 193.81C11.7109 194.229 12.7945 194.444 13.8889 194.444C14.9832 194.444 16.0669 194.229 17.0779 193.81C18.089 193.391 19.0076 192.778 19.7814 192.004C20.5553 191.23 21.1691 190.311 21.5879 189.3C22.0067 188.289 22.2222 187.206 22.2222 186.111C22.2222 183.901 21.3442 181.781 19.7814 180.219C18.2186 178.656 16.099 177.778 13.8889 177.778C11.6787 177.778 9.55912 178.656 7.99632 180.219C6.43352 181.781 5.55554 183.901 5.55554 186.111Z" fill="#55ACEE"/>
<path d="M150 11.1111C150 14.058 151.171 16.8841 153.254 18.9679C155.338 21.0516 158.164 22.2222 161.111 22.2222C164.058 22.2222 166.884 21.0516 168.968 18.9679C171.052 16.8841 172.222 14.058 172.222 11.1111C172.222 8.16426 171.052 5.33811 168.968 3.25437C166.884 1.17063 164.058 0 161.111 0C158.164 0 155.338 1.17063 153.254 3.25437C151.171 5.33811 150 8.16426 150 11.1111Z" fill="#55ACEE"/>
<path d="M27.0222 162.478L14.0333 131.278L2.28888 164.861L27.0222 162.478ZM144.444 27.7778L122.222 33.3333L127.778 11.1111L144.444 27.7778Z" fill="#EA596E"/>
<path d="M177.772 72.2221L200 44.4388L183.333 33.3333L177.772 72.2221Z" fill="#77B255"/>
</g>
<defs>
<clipPath id="clip0_270_6869">
<rect width="200" height="200" fill="white"/>
</clipPath>
</defs>
</svg>
