<svg width="288" height="288" viewBox="0 0 288 288" fill="none" xmlns="http://www.w3.org/2000/svg">
<ellipse cx="144" cy="144" rx="137" ry="144" fill="url(#paint0_linear_1663_6267)"/>
<circle cx="144" cy="150" r="136" fill="url(#paint1_linear_1663_6267)" stroke="url(#paint2_linear_1663_6267)" stroke-width="2"/>
<g filter="url(#filter0_ii_1663_6267)">
<circle cx="144" cy="150" r="109" fill="url(#paint3_linear_1663_6267)"/>
</g>
<circle cx="144" cy="150" r="108" stroke="url(#paint4_linear_1663_6267)" stroke-width="2"/>
<g filter="url(#filter1_dii_1663_6267)">
<path fill-rule="evenodd" clip-rule="evenodd" d="M138.373 100.594C141.308 99.2334 144.692 99.2334 147.627 100.594C150.095 101.738 151.525 103.722 152.311 104.93C153.101 106.145 153.92 107.698 154.734 109.242C154.774 109.317 154.813 109.392 154.852 109.466L184.962 166.55C186.879 170.182 188.537 173.326 189.63 175.956C190.744 178.636 191.727 181.792 191.273 185.229C190.653 189.915 188.11 194.132 184.253 196.867C181.426 198.872 178.175 199.476 175.285 199.74C172.449 200 168.895 200 164.789 200H121.211C117.105 200 113.551 200 110.715 199.74C107.825 199.476 104.574 198.872 101.747 196.867C97.8904 194.132 95.3471 189.915 94.7273 185.229C94.2729 181.792 95.2557 178.636 96.3698 175.956C97.4631 173.326 99.1214 170.182 101.037 166.55L131.148 109.466C131.187 109.392 131.226 109.317 131.266 109.242C132.08 107.699 132.899 106.145 133.689 104.93C134.475 103.722 135.906 101.738 138.373 100.594ZM143 117.004L113.569 172.801C111.462 176.795 110.114 179.366 109.297 181.33C108.706 182.752 108.626 183.339 108.615 183.454C108.735 184.236 109.159 184.94 109.795 185.411C109.903 185.455 110.459 185.658 111.992 185.799C114.111 185.993 117.014 186 121.529 186H164.471C168.986 186 171.889 185.993 174.008 185.799C175.541 185.658 176.097 185.455 176.205 185.411C176.841 184.94 177.265 184.236 177.385 183.454C177.374 183.339 177.294 182.752 176.703 181.33C175.886 179.366 174.538 176.795 172.432 172.801L143 117.004Z" fill="url(#paint5_linear_1663_6267)"/>
<path d="M147.838 100.141C144.769 98.718 141.231 98.718 138.163 100.141C135.563 101.346 134.069 103.429 133.27 104.657C132.467 105.891 131.64 107.461 130.831 108.994L130.823 109.009L130.706 109.233L100.595 166.317L100.585 166.336C98.6771 169.953 97.0102 173.113 95.9081 175.764C94.7834 178.469 93.7597 181.725 94.2316 185.294C94.8696 190.119 97.4877 194.46 101.457 197.275C104.394 199.357 107.752 199.971 110.669 200.238C113.528 200.5 117.101 200.5 121.19 200.5H121.211H164.789H164.81C168.899 200.5 172.472 200.5 175.331 200.238C178.248 199.971 181.606 199.357 184.543 197.275C188.512 194.46 191.13 190.119 191.768 185.294C192.24 181.725 191.217 178.469 190.092 175.764C188.99 173.113 187.323 169.953 185.415 166.336L185.405 166.317L155.295 109.233L155.177 109.009L155.169 108.994C154.361 107.461 153.533 105.891 152.73 104.657C151.931 103.429 150.437 101.346 147.838 100.141ZM114.011 173.034L143 118.076L171.989 173.034C174.101 177.037 175.435 179.584 176.241 181.522C176.733 182.705 176.852 183.27 176.88 183.445C176.77 184.048 176.443 184.59 175.961 184.968C175.793 185.025 175.238 185.184 173.962 185.301C171.872 185.492 168.997 185.5 164.471 185.5H121.529C117.004 185.5 114.128 185.492 112.038 185.301C110.762 185.184 110.207 185.025 110.039 184.968C109.557 184.59 109.23 184.048 109.121 183.445C109.148 183.27 109.267 182.705 109.759 181.522C110.565 179.584 111.899 177.037 114.011 173.034Z" stroke="url(#paint6_linear_1663_6267)"/>
</g>
<defs>
<filter id="filter0_ii_1663_6267" x="31" y="39" width="224" height="224" filterUnits="userSpaceOnUse" color-interpolation-filters="sRGB">
<feFlood flood-opacity="0" result="BackgroundImageFix"/>
<feBlend mode="normal" in="SourceGraphic" in2="BackgroundImageFix" result="shape"/>
<feColorMatrix in="SourceAlpha" type="matrix" values="0 0 0 0 0 0 0 0 0 0 0 0 0 0 0 0 0 0 127 0" result="hardAlpha"/>
<feOffset dx="-6" dy="26"/>
<feGaussianBlur stdDeviation="2"/>
<feComposite in2="hardAlpha" operator="arithmetic" k2="-1" k3="1"/>
<feColorMatrix type="matrix" values="0 0 0 0 0.988235 0 0 0 0 0.803922 0 0 0 0 0.00392157 0 0 0 1 0"/>
<feBlend mode="normal" in2="shape" result="effect1_innerShadow_1663_6267"/>
<feColorMatrix in="SourceAlpha" type="matrix" values="0 0 0 0 0 0 0 0 0 0 0 0 0 0 0 0 0 0 127 0" result="hardAlpha"/>
<feOffset dx="4" dy="-12"/>
<feGaussianBlur stdDeviation="1"/>
<feComposite in2="hardAlpha" operator="arithmetic" k2="-1" k3="1"/>
<feColorMatrix type="matrix" values="0 0 0 0 0.901961 0 0 0 0 0.552941 0 0 0 0 0.0392157 0 0 0 1 0"/>
<feBlend mode="normal" in2="effect1_innerShadow_1663_6267" result="effect2_innerShadow_1663_6267"/>
</filter>
<filter id="filter1_dii_1663_6267" x="90.6138" y="96.5736" width="105.772" height="106.426" filterUnits="userSpaceOnUse" color-interpolation-filters="sRGB">
<feFlood flood-opacity="0" result="BackgroundImageFix"/>
<feColorMatrix in="SourceAlpha" type="matrix" values="0 0 0 0 0 0 0 0 0 0 0 0 0 0 0 0 0 0 127 0" result="hardAlpha"/>
<feOffset dx="1" dy="2"/>
<feComposite in2="hardAlpha" operator="out"/>
<feColorMatrix type="matrix" values="0 0 0 0 0.980392 0 0 0 0 0.8 0 0 0 0 0.243137 0 0 0 1 0"/>
<feBlend mode="normal" in2="BackgroundImageFix" result="effect1_dropShadow_1663_6267"/>
<feBlend mode="normal" in="SourceGraphic" in2="effect1_dropShadow_1663_6267" result="shape"/>
<feColorMatrix in="SourceAlpha" type="matrix" values="0 0 0 0 0 0 0 0 0 0 0 0 0 0 0 0 0 0 127 0" result="hardAlpha"/>
<feOffset dx="5" dy="-2"/>
<feGaussianBlur stdDeviation="2"/>
<feComposite in2="hardAlpha" operator="arithmetic" k2="-1" k3="1"/>
<feColorMatrix type="matrix" values="0 0 0 0 0.901961 0 0 0 0 0.576471 0 0 0 0 0.109804 0 0 0 1 0"/>
<feBlend mode="normal" in2="shape" result="effect2_innerShadow_1663_6267"/>
<feColorMatrix in="SourceAlpha" type="matrix" values="0 0 0 0 0 0 0 0 0 0 0 0 0 0 0 0 0 0 127 0" result="hardAlpha"/>
<feOffset dx="-3" dy="1"/>
<feGaussianBlur stdDeviation="2"/>
<feComposite in2="hardAlpha" operator="arithmetic" k2="-1" k3="1"/>
<feColorMatrix type="matrix" values="0 0 0 0 1 0 0 0 0 1 0 0 0 0 1 0 0 0 0.25 0"/>
<feBlend mode="normal" in2="effect2_innerShadow_1663_6267" result="effect3_innerShadow_1663_6267"/>
</filter>
<linearGradient id="paint0_linear_1663_6267" x1="7" y1="152.934" x2="281" y2="152.934" gradientUnits="userSpaceOnUse">
<stop stop-color="#F9DA9B"/>
<stop offset="1" stop-color="#C75810"/>
</linearGradient>
<linearGradient id="paint1_linear_1663_6267" x1="201.5" y1="22" x2="144" y2="287" gradientUnits="userSpaceOnUse">
<stop stop-color="#FB9A08"/>
<stop offset="0.245" stop-color="#FDD163"/>
<stop offset="0.48" stop-color="#EFB019"/>
<stop offset="0.805" stop-color="#FBCA54"/>
<stop offset="1" stop-color="#F2BF3D"/>
</linearGradient>
<linearGradient id="paint2_linear_1663_6267" x1="69" y1="39.5" x2="198.5" y2="276" gradientUnits="userSpaceOnUse">
<stop stop-color="#FFC508"/>
<stop offset="1" stop-color="#D9AF3F"/>
</linearGradient>
<linearGradient id="paint3_linear_1663_6267" x1="144" y1="41" x2="144" y2="259" gradientUnits="userSpaceOnUse">
<stop stop-color="#FCCA07"/>
<stop offset="0.515" stop-color="#FCDC6D"/>
<stop offset="1" stop-color="#FDC018"/>
</linearGradient>
<linearGradient id="paint4_linear_1663_6267" x1="175" y1="51" x2="89" y2="241.5" gradientUnits="userSpaceOnUse">
<stop stop-color="#FFF92D"/>
<stop offset="0.33" stop-color="#FFF92D"/>
<stop offset="0.48" stop-color="white"/>
<stop offset="0.625" stop-color="#FFF92D"/>
<stop offset="1" stop-color="#F1C64F"/>
</linearGradient>
<linearGradient id="paint5_linear_1663_6267" x1="143" y1="99.5736" x2="143" y2="200" gradientUnits="userSpaceOnUse">
<stop stop-color="#B96413"/>
<stop offset="0.515" stop-color="#F1BF42"/>
<stop offset="1" stop-color="#E6930C"/>
</linearGradient>
<linearGradient id="paint6_linear_1663_6267" x1="130.472" y1="113.013" x2="194.882" y2="200.139" gradientUnits="userSpaceOnUse">
<stop stop-color="#FFF276"/>
<stop offset="1" stop-color="#E5A20E"/>
</linearGradient>
</defs>
</svg>
