<svg width="22" height="22" viewBox="0 0 22 22" fill="none" xmlns="http://www.w3.org/2000/svg">
<g clip-path="url(#clip0_172_5850)">
<path d="M1.73988 15.2526C1.67011 15.2944 0.029599 16.3262 2.17236e-06 18.5042C-0.00211189 20.4578 1.53904 22 3.43535 22H14.6991C16.5891 21.9955 18.1282 20.4555 18.1282 18.5635C18.1282 18.0885 17.7433 17.7035 17.2698 17.7035C16.7941 17.7035 16.4094 18.0885 16.4094 18.5635C16.4094 19.5095 15.6398 20.2795 14.6927 20.2818C13.7456 20.2795 12.9761 19.5095 12.9761 18.5635C12.9761 17.3602 13.8217 16.7662 13.9 16.7156C14.234 16.5176 14.3862 16.1282 14.2847 15.7564C14.1854 15.3802 13.8365 15.125 13.4476 15.125H6.39504C6.16884 13.4464 5.82213 11.7436 5.48599 10.0914C4.98708 7.6252 4.51353 5.2954 4.51353 3.4364L4.51141 3.3836C4.54101 2.4596 5.29996 1.7182 6.22803 1.7182H14.7308C14.4369 2.2242 14.2678 2.8116 14.2678 3.4364C14.2678 5.4692 14.7562 7.8804 15.2762 10.4324C15.5595 11.8338 15.8534 13.2836 16.069 14.6982C16.1345 15.1228 16.5003 15.4264 16.9188 15.4264C16.9188 15.4264 17.0055 15.4242 17.0499 15.4176C17.5192 15.345 17.8406 14.9072 17.7688 14.4386C17.5467 12.9822 17.2487 11.5126 16.959 10.0914C16.4601 7.6252 15.9865 5.2954 15.9865 3.4364C15.9865 2.4904 16.7561 1.7204 17.7031 1.7182C18.6503 1.7204 19.4198 2.4904 19.4198 3.4364C19.4198 4.356 18.9272 4.917 18.6588 5.1568C18.0434 5.1568 17.6588 5.5418 17.6588 6.0148C17.6588 6.49 18.0434 6.875 18.5171 6.875H18.9484C18.9484 6.875 19.2634 6.831 19.3987 6.7474C19.4685 6.7034 21.1386 5.654 21.1386 3.4364C21.1386 1.5444 19.6017 0.0044 17.7095 0L17.5869 0.0022L6.22803 0C4.33383 0 2.79056 1.5422 2.79056 3.4386C2.80959 5.5396 3.2916 7.9178 3.8032 10.4324C4.11608 11.9812 4.43953 13.574 4.6594 15.125H2.19017C2.19017 15.125 1.87518 15.169 1.73988 15.2526ZM12.8455 6.01562C12.8455 6.49034 12.461 6.875 11.9863 6.875H7.13058C6.65591 6.875 6.27133 6.49034 6.27133 6.01562C6.27133 5.54091 6.65591 5.15625 7.13058 5.15625H11.9863C12.461 5.15625 12.8455 5.54091 12.8455 6.01562ZM12.5017 8.16406C12.9765 8.16406 13.3612 8.54872 13.3612 9.02344C13.3612 9.49816 12.9765 9.88281 12.5017 9.88281H7.68943C7.21461 9.88281 6.82992 9.49816 6.82992 9.02344C6.82992 8.54872 7.21461 8.16406 7.68943 8.16406H12.5017ZM7.51742 12.0312C7.51742 11.5565 7.90232 11.1719 8.3769 11.1719H11.4275C11.9021 11.1719 12.287 11.5565 12.287 12.0312C12.287 12.506 11.9021 12.8906 11.4275 12.8906H8.3769C7.90232 12.8906 7.51742 12.506 7.51742 12.0312ZM11.2576 18.5625C11.2576 19.1881 11.4256 19.7752 11.7186 20.2812H3.43539C2.50224 20.2812 1.74013 19.5333 1.71714 18.6051L1.71814 18.5625C1.71814 17.6443 2.21021 17.082 2.47925 16.8438H11.6356C11.4156 17.3095 11.2576 17.8808 11.2576 18.5625Z" fill="#7C7C80"/>
</g>
<defs>
<clipPath id="clip0_172_5850">
<rect width="21.1385" height="22" fill="white"/>
</clipPath>
</defs>
</svg>
