<svg width="36" height="36" viewBox="0 0 36 36" fill="none" xmlns="http://www.w3.org/2000/svg">
<path d="M10.5616 15.3077C14.3134 11.5787 15.0629 6.07692 15.0629 3C20.1043 6.69231 22.9192 14.6667 23.2194 18C25.38 18 26.7663 15.3077 27.6665 13.7692C32.1678 29.1538 23.0329 32.2308 17.6313 33C7.72844 31.4615 3.66072 22.1667 10.5616 15.3077Z" fill="#D24940"/>
<path fill-rule="evenodd" clip-rule="evenodd" d="M14.7237 2.3311C14.9757 2.20331 15.2782 2.22798 15.5061 2.39493C18.167 4.34378 20.1978 7.38372 21.5959 10.3114C22.8007 12.8343 23.5707 15.348 23.8629 17.1336C24.3718 16.9488 24.8608 16.5495 25.3421 15.9783C25.92 15.2924 26.3918 14.4755 26.8099 13.7514C26.8812 13.628 26.9509 13.5073 27.0193 13.3904C27.1705 13.132 27.4609 12.9883 27.7581 13.0248C28.0553 13.0614 28.3023 13.2712 28.3864 13.5586C30.6779 21.3904 29.5532 26.3032 26.9314 29.3542C24.3512 32.3566 20.4845 33.3513 17.7371 33.7425C17.6638 33.7529 17.5894 33.7525 17.5162 33.7411C12.3584 32.9398 8.61273 30.0962 7.10183 26.4352C5.5799 22.7473 6.39401 18.3926 10.033 14.7758C13.5713 11.2589 14.313 6.00848 14.313 3C14.313 2.71746 14.4717 2.45889 14.7237 2.3311ZM23.9625 17.8909C23.8699 17.9184 23.7757 17.9411 23.6798 17.9585C23.5304 17.9857 23.377 18 23.2194 18C22.9343 14.8338 20.3803 7.4803 15.8044 3.58656C15.5629 3.38103 15.3157 3.18513 15.063 3C15.063 3.28925 15.0563 3.59992 15.0412 3.92854C14.8955 7.09565 13.9608 11.9293 10.5617 15.3077C3.66078 22.1667 7.7285 31.4615 17.6314 33C22.9124 32.2479 31.762 29.29 27.9478 14.781C27.8607 14.4498 27.767 14.1126 27.6666 13.7692C27.6021 13.8794 27.5351 13.9955 27.4656 14.1161C27.3635 14.2931 27.2558 14.4798 27.1422 14.6717C26.3816 15.9566 25.3552 17.4761 23.9625 17.8909Z" fill="#60050F"/>
<path d="M10.5616 15.3077C14.3134 11.5787 15.0629 6.07692 15.0629 3C15.8031 3.54211 16.4953 4.17652 17.1385 4.875C17.5897 9.375 14.4373 14.775 11.8123 16.875C9.93735 18.375 8.24985 20.25 8.24985 23.25C8.24985 28.659 13.6957 32.0998 16.858 32.8619C17.1116 32.9132 17.3694 32.9593 17.6313 33C17.3945 32.9748 17.1351 32.9286 16.858 32.8619C7.52098 30.9717 3.84321 21.9853 10.5616 15.3077Z" fill="#E95D54"/>
<path fill-rule="evenodd" clip-rule="evenodd" d="M7.14296 22.2255C6.81814 27.2711 10.8611 31.9482 17.6313 33C23.0329 32.2308 32.1678 29.1538 27.6665 13.7692C27.602 13.8794 27.5351 13.9955 27.4655 14.1161C27.4212 14.1929 27.3759 14.2715 27.3294 14.3516C30.7535 27.982 22.3205 30.7829 17.269 31.5C11.2273 30.5643 7.43511 26.6478 7.14296 22.2255ZM23.3879 17.9945C23.3322 17.9981 23.2761 18 23.2194 18C22.9562 15.0779 20.7605 8.58916 16.8265 4.54523C20.3728 8.69686 22.2536 15.4612 22.4999 18.1875C22.7985 18.1875 23.0961 18.1183 23.3879 17.9945Z" fill="#AB3028"/>
<path d="M17.625 33C7.31241 31.6875 12.5624 18.1875 17.9999 13.6875C17.0624 20.4375 22.2632 20.03 22.8749 26.25C23.2499 30.0625 21.7499 32.625 17.625 33Z" fill="#FF784E"/>
<path d="M17.625 33C9.79515 31.4167 13.1701 21.9167 16.7291 18.75C16.7292 24.2917 21 23.5 21 28.25C21 31.4167 19.5 32.8125 17.625 33Z" fill="#FFB45C"/>
<path d="M17.6637 33C21.9345 32.1667 19.4999 27.5625 17.4373 25.5C17.6249 28.6875 15.9375 28.5 15.7499 30.5625C15.6254 31.9318 16.7577 32.8611 17.6637 33Z" fill="#F5992D"/>
<path d="M17.625 33C19.8749 32.625 18.7499 30.1875 17.6249 28.875C17.4374 30.375 16.6034 30.525 16.5049 31.6594C16.4394 32.4125 17.149 32.9236 17.625 33Z" fill="#E27F0A"/>
<path d="M17.3862 32.9485C9.8648 31.2213 13.2069 21.884 16.7291 18.75C16.7291 20.0456 16.9626 20.995 17.3203 21.75C16.6094 22.4375 15.075 24.675 14.625 28.125C14.2048 31.3462 16.2028 32.6386 17.3862 32.9485C17.4646 32.9665 17.5442 32.9837 17.625 33C17.5503 32.9876 17.4703 32.9705 17.3862 32.9485Z" fill="#FFC46A"/>
<path fill-rule="evenodd" clip-rule="evenodd" d="M27.4079 15.6343C27.5754 15.7561 27.6124 15.9906 27.4906 16.1581C27.2264 16.5214 26.7501 17.0844 26.1646 17.6166C25.5835 18.1447 24.8658 18.6691 24.1184 18.9183C23.922 18.9838 23.7096 18.8776 23.6441 18.6811C23.5786 18.4846 23.6848 18.2723 23.8813 18.2068C24.4839 18.0059 25.11 17.5616 25.6601 17.0616C26.2058 16.5656 26.6483 16.0412 26.8841 15.717C27.0059 15.5495 27.2404 15.5124 27.4079 15.6343Z" fill="#FF766D"/>
<path fill-rule="evenodd" clip-rule="evenodd" d="M27.4078 15.6343C27.5753 15.7561 27.6123 15.9906 27.4905 16.1581C27.2206 16.5292 26.7291 17.1092 26.1255 17.6519C25.9714 17.7903 25.7343 17.7777 25.5959 17.6237C25.4574 17.4697 25.47 17.2326 25.6241 17.0941C26.1861 16.5889 26.6429 16.0485 26.884 15.717C27.0058 15.5495 27.2403 15.5124 27.4078 15.6343Z" fill="#FFD2CF"/>
<path fill-rule="evenodd" clip-rule="evenodd" d="M15.7732 4.50074C15.9799 4.51366 16.137 4.6917 16.124 4.8984C15.9341 7.93784 14.9852 11.5819 13.2373 13.9125C13.113 14.0782 12.878 14.1118 12.7123 13.9875C12.5466 13.8632 12.513 13.6282 12.6373 13.4625C14.2643 11.2931 15.1905 7.81219 15.3755 4.85162C15.3884 4.64492 15.5665 4.48782 15.7732 4.50074Z" fill="#FF766D"/>
<path fill-rule="evenodd" clip-rule="evenodd" d="M15.7733 4.50074C15.98 4.51366 16.1371 4.6917 16.1242 4.8984C16.0553 6.00022 15.8874 7.17479 15.6204 8.33416C15.5739 8.53599 15.3726 8.66192 15.1708 8.61545C14.969 8.56897 14.8431 8.36769 14.8895 8.16586C15.1474 7.04614 15.3094 5.9122 15.3757 4.85162C15.3886 4.64492 15.5666 4.48782 15.7733 4.50074Z" fill="#FFD2CF"/>
<path fill-rule="evenodd" clip-rule="evenodd" d="M16.3648 20.3369C16.5239 20.4695 16.5454 20.706 16.4129 20.8651C15.5192 21.9375 14.4289 24.1161 14.2485 26.2812C14.2313 26.4875 14.05 26.6409 13.8436 26.6237C13.6372 26.6065 13.4839 26.4253 13.5011 26.2189C13.6956 23.884 14.8554 21.5625 15.8367 20.3849C15.9693 20.2258 16.2057 20.2043 16.3648 20.3369Z" fill="#FFDEC0"/>
<path d="M24 21.75C24 21.9571 23.8321 22.125 23.625 22.125C23.4179 22.125 23.25 21.9571 23.25 21.75C23.25 21.5429 23.4179 21.375 23.625 21.375C23.8321 21.375 24 21.5429 24 21.75Z" fill="#F44F44"/>
<path d="M22.875 22.6875C22.875 22.7911 22.7911 22.875 22.6875 22.875C22.5839 22.875 22.5 22.7911 22.5 22.6875C22.5 22.5839 22.5839 22.5 22.6875 22.5C22.7911 22.5 22.875 22.5839 22.875 22.6875Z" fill="#F44F44"/>
<path d="M24.75 20.8125C24.75 20.9161 24.6661 21 24.5625 21C24.4589 21 24.375 20.9161 24.375 20.8125C24.375 20.7089 24.4589 20.625 24.5625 20.625C24.6661 20.625 24.75 20.7089 24.75 20.8125Z" fill="#F44F44"/>
<path d="M25.125 22.3125C25.125 22.4161 25.0411 22.5 24.9375 22.5C24.8339 22.5 24.75 22.4161 24.75 22.3125C24.75 22.2089 24.8339 22.125 24.9375 22.125C25.0411 22.125 25.125 22.2089 25.125 22.3125Z" fill="#F44F44"/>
<path d="M24 23.4375C24 23.5411 23.9161 23.625 23.8125 23.625C23.7089 23.625 23.625 23.5411 23.625 23.4375C23.625 23.3339 23.7089 23.25 23.8125 23.25C23.9161 23.25 24 23.3339 24 23.4375Z" fill="#F44F44"/>
<path d="M23.625 25.3125C23.625 25.4161 23.5411 25.5 23.4375 25.5C23.3339 25.5 23.25 25.4161 23.25 25.3125C23.25 25.2089 23.3339 25.125 23.4375 25.125C23.5411 25.125 23.625 25.2089 23.625 25.3125Z" fill="#F44F44"/>
<path d="M21.75 19.3125C21.75 19.4161 21.6661 19.5 21.5625 19.5C21.4589 19.5 21.375 19.4161 21.375 19.3125C21.375 19.2089 21.4589 19.125 21.5625 19.125C21.6661 19.125 21.75 19.2089 21.75 19.3125Z" fill="#F44F44"/>
<path d="M21.375 16.3125C21.375 16.4161 21.2911 16.5 21.1875 16.5C21.0839 16.5 21 16.4161 21 16.3125C21 16.2089 21.0839 16.125 21.1875 16.125C21.2911 16.125 21.375 16.2089 21.375 16.3125Z" fill="#F44F44"/>
<path d="M21.375 17.8125C21.375 17.9161 21.2911 18 21.1875 18C21.0839 18 21 17.9161 21 17.8125C21 17.7089 21.0839 17.625 21.1875 17.625C21.2911 17.625 21.375 17.7089 21.375 17.8125Z" fill="#F44F44"/>
<path d="M20.625 19.3125C20.625 19.4161 20.5411 19.5 20.4375 19.5C20.3339 19.5 20.25 19.4161 20.25 19.3125C20.25 19.2089 20.3339 19.125 20.4375 19.125C20.5411 19.125 20.625 19.2089 20.625 19.3125Z" fill="#F44F44"/>
<path d="M12 21.5625C12 21.6661 11.9161 21.75 11.8125 21.75C11.7089 21.75 11.625 21.6661 11.625 21.5625C11.625 21.4589 11.7089 21.375 11.8125 21.375C11.9161 21.375 12 21.4589 12 21.5625Z" fill="#F44F44"/>
<path d="M11.25 19.6875C11.25 19.7911 11.1661 19.875 11.0625 19.875C10.9589 19.875 10.875 19.7911 10.875 19.6875C10.875 19.5839 10.9589 19.5 11.0625 19.5C11.1661 19.5 11.25 19.5839 11.25 19.6875Z" fill="#F44F44"/>
<path d="M13.5 18.5625C13.5 18.6661 13.4161 18.75 13.3125 18.75C13.2089 18.75 13.125 18.6661 13.125 18.5625C13.125 18.4589 13.2089 18.375 13.3125 18.375C13.4161 18.375 13.5 18.4589 13.5 18.5625Z" fill="#F44F44"/>
<path d="M12 18.5625C12 18.6661 11.9161 18.75 11.8125 18.75C11.7089 18.75 11.625 18.6661 11.625 18.5625C11.625 18.4589 11.7089 18.375 11.8125 18.375C11.9161 18.375 12 18.4589 12 18.5625Z" fill="#F44F44"/>
<path d="M13.875 17.0625C13.875 17.1661 13.7911 17.25 13.6875 17.25C13.5839 17.25 13.5 17.1661 13.5 17.0625C13.5 16.9589 13.5839 16.875 13.6875 16.875C13.7911 16.875 13.875 16.9589 13.875 17.0625Z" fill="#F44F44"/>
<path d="M11.625 22.6875C11.625 22.7911 11.5411 22.875 11.4375 22.875C11.3339 22.875 11.25 22.7911 11.25 22.6875C11.25 22.5839 11.3339 22.5 11.4375 22.5C11.5411 22.5 11.625 22.5839 11.625 22.6875Z" fill="#F44F44"/>
<path d="M10.5 22.3125C10.5 22.4161 10.4161 22.5 10.3125 22.5C10.2089 22.5 10.125 22.4161 10.125 22.3125C10.125 22.2089 10.2089 22.125 10.3125 22.125C10.4161 22.125 10.5 22.2089 10.5 22.3125Z" fill="#F44F44"/>
<path d="M9.75 23.8125C9.75 23.9161 9.66605 24 9.5625 24C9.45895 24 9.375 23.9161 9.375 23.8125C9.375 23.7089 9.45895 23.625 9.5625 23.625C9.66605 23.625 9.75 23.7089 9.75 23.8125Z" fill="#F44F44"/>
<path d="M10.875 24.5625C10.875 24.6661 10.7911 24.75 10.6875 24.75C10.5839 24.75 10.5 24.6661 10.5 24.5625C10.5 24.4589 10.5839 24.375 10.6875 24.375C10.7911 24.375 10.875 24.4589 10.875 24.5625Z" fill="#F44F44"/>
<path d="M10.875 26.0625C10.875 26.1661 10.7911 26.25 10.6875 26.25C10.5839 26.25 10.5 26.1661 10.5 26.0625C10.5 25.9589 10.5839 25.875 10.6875 25.875C10.7911 25.875 10.875 25.9589 10.875 26.0625Z" fill="#F44F44"/>
<path d="M19.125 15.9375C19.125 16.0411 19.0411 16.125 18.9375 16.125C18.8339 16.125 18.75 16.0411 18.75 15.9375C18.75 15.8339 18.8339 15.75 18.9375 15.75C19.0411 15.75 19.125 15.8339 19.125 15.9375Z" fill="#F44F44"/>
<path d="M20.25 16.6875C20.25 16.7911 20.1661 16.875 20.0625 16.875C19.9589 16.875 19.875 16.7911 19.875 16.6875C19.875 16.5839 19.9589 16.5 20.0625 16.5C20.1661 16.5 20.25 16.5839 20.25 16.6875Z" fill="#F44F44"/>
<path d="M19.5 14.4375C19.5 14.5411 19.4161 14.625 19.3125 14.625C19.2089 14.625 19.125 14.5411 19.125 14.4375C19.125 14.3339 19.2089 14.25 19.3125 14.25C19.4161 14.25 19.5 14.3339 19.5 14.4375Z" fill="#F44F44"/>
<path d="M22.125 21C22.125 21.2071 21.9571 21.375 21.75 21.375C21.5429 21.375 21.375 21.2071 21.375 21C21.375 20.7929 21.5429 20.625 21.75 20.625C21.9571 20.625 22.125 20.7929 22.125 21Z" fill="#F44F44"/>
<path d="M10.5 21C10.5 21.2071 10.3321 21.375 10.125 21.375C9.91789 21.375 9.75 21.2071 9.75 21C9.75 20.7929 9.91789 20.625 10.125 20.625C10.3321 20.625 10.5 20.7929 10.5 21Z" fill="#F44F44"/>
<path d="M20.25 18C20.25 18.2071 20.0821 18.375 19.875 18.375C19.6679 18.375 19.5 18.2071 19.5 18C19.5 17.7929 19.6679 17.625 19.875 17.625C20.0821 17.625 20.25 17.7929 20.25 18Z" fill="#F44F44"/>
<path d="M12.75 19.875C12.75 20.0821 12.5821 20.25 12.375 20.25C12.1679 20.25 12 20.0821 12 19.875C12 19.6679 12.1679 19.5 12.375 19.5C12.5821 19.5 12.75 19.6679 12.75 19.875Z" fill="#F44F44"/>
<path d="M11.25 23.625C11.25 23.8321 11.0821 24 10.875 24C10.6679 24 10.5 23.8321 10.5 23.625C10.5 23.4179 10.6679 23.25 10.875 23.25C11.0821 23.25 11.25 23.4179 11.25 23.625Z" fill="#F44F44"/>
<path d="M23.625 20.0625C23.625 20.3732 23.3732 20.625 23.0625 20.625C22.7518 20.625 22.5 20.3732 22.5 20.0625C22.5 19.7518 22.7518 19.5 23.0625 19.5C23.3732 19.5 23.625 19.7518 23.625 20.0625Z" fill="#F44F44"/>
</svg>
