<svg width="29" height="33" viewBox="0 0 29 33" fill="none" xmlns="http://www.w3.org/2000/svg">
<path d="M19.3282 14.3281L26.6143 4.97252C27.1356 4.3031 26.7565 3.31948 25.9208 3.17313L10.5409 0.480083C10.0448 0.393205 9.55132 0.646715 9.33302 1.10066L3.05189 14.1617C2.72865 14.8339 3.13705 15.6288 3.87171 15.7574L9.60586 16.7615C9.83852 16.8022 9.97603 17.0453 9.8911 17.2657L6.20809 26.8229C5.82391 27.8199 6.91539 28.7407 7.8334 28.1941L25.1091 17.9077C26.0057 17.3738 25.7555 16.0129 24.7276 15.8329L19.5593 14.9279C19.2808 14.8791 19.1544 14.5513 19.3282 14.3281Z" fill="#FFB547" stroke="#604104" stroke-width="0.75" stroke-linecap="round" stroke-linejoin="round"/>
<path d="M9.671 1.26326C9.81654 0.960633 10.1455 0.791627 10.4763 0.849546L16.6019 1.92217L11.836 12.0469L5.08789 10.7934L9.671 1.26326Z" fill="#FFC369"/>
<path d="M7.125 27L10.9219 17.6016" stroke="#FFE7A9" stroke-width="0.75" stroke-linecap="round" stroke-linejoin="round"/>
<path d="M24.9173 17.5855L7.6416 27.8719L21.3798 16.3368L21.0001 15.5742L24.663 16.2023C25.3482 16.3223 25.5151 17.2296 24.9173 17.5855Z" fill="#C87719"/>
<path d="M26.3185 4.74209L19.0323 14.0977C18.6862 14.5422 18.9355 15.1944 19.488 15.2961L15.75 14.625L22.875 3.02051L25.8561 3.5425C26.4133 3.64006 26.666 4.29581 26.3185 4.74209Z" fill="#C87719"/>
<path d="M7.83336 28.1942C7.85123 28.1835 7.86818 28.1714 7.88404 28.158L20.9699 17.0621C21.6945 16.4477 21.3783 15.2672 20.4435 15.0972L16.3563 14.3541L22.6169 4.1576C23.0325 3.48065 22.6347 2.59782 21.8522 2.46081L10.5409 0.480166C10.0447 0.393288 9.55128 0.646797 9.33298 1.10074L3.05186 14.1618C2.72862 14.8339 3.13701 15.6289 3.87167 15.7575L9.60583 16.7616C9.83849 16.8023 9.976 17.0454 9.89107 17.2658L6.20806 26.823C5.82387 27.82 6.91536 28.7408 7.83336 28.1942Z" stroke="#604104" stroke-width="0.75" stroke-linecap="round" stroke-linejoin="round"/>
<path d="M15.75 14.6251L22.2974 3.96146C22.5745 3.51017 22.3092 2.92162 21.7876 2.83028L20.4375 2.59387L14.4375 14.25L15.75 14.6251Z" fill="#E78F28"/>
<path d="M10.125 1.875L4.125 14.25" stroke="#FFE7A9" stroke-width="0.75" stroke-linecap="round" stroke-linejoin="round"/>
<path d="M4.125 14.25L5.8125 10.7695" stroke="#FFF5DB" stroke-width="0.75" stroke-linecap="round" stroke-linejoin="round"/>
<ellipse cx="21.6563" cy="9.04105" rx="0.28125" ry="0.333984" transform="rotate(24.2737 21.6563 9.04105)" fill="#AD6209"/>
<ellipse cx="20.6064" cy="11.008" rx="0.28125" ry="0.333984" transform="rotate(24.2737 20.6064 11.008)" fill="#AD6209"/>
<ellipse cx="20.7254" cy="9.80543" rx="0.383801" ry="0.455764" transform="rotate(24.2737 20.7254 9.80543)" fill="#AD6209"/>
<ellipse cx="23.0743" cy="7.55277" rx="0.28125" ry="0.333984" transform="rotate(24.2737 23.0743 7.55277)" fill="#AD6209"/>
<ellipse cx="22.1749" cy="7.83777" rx="0.201256" ry="0.238991" transform="rotate(24.2737 22.1749 7.83777)" fill="#AD6209"/>
<ellipse cx="22.5419" cy="8.74048" rx="0.201256" ry="0.238991" transform="rotate(24.2737 22.5419 8.74048)" fill="#AD6209"/>
<ellipse cx="21.3955" cy="10.2874" rx="0.201256" ry="0.238991" transform="rotate(24.2737 21.3955 10.2874)" fill="#AD6209"/>
<ellipse cx="19.5908" cy="11.563" rx="0.201256" ry="0.238991" transform="rotate(24.2737 19.5908 11.563)" fill="#AD6209"/>
<ellipse cx="21.3955" cy="8.00311" rx="0.201256" ry="0.238991" transform="rotate(24.2737 21.3955 8.00311)" fill="#AD6209"/>
<ellipse cx="22.5419" cy="6.12811" rx="0.201256" ry="0.238991" transform="rotate(24.2737 22.5419 6.12811)" fill="#AD6209"/>
<ellipse cx="23.995" cy="6.36249" rx="0.201256" ry="0.238991" transform="rotate(24.2737 23.995 6.36249)" fill="#AD6209"/>
<path d="M12.7969 22.6523L19.9922 16.2539" stroke="#F0A637" stroke-width="0.75" stroke-linecap="round" stroke-linejoin="round"/>
<path d="M14.2031 13.1719L19.3125 3.02344" stroke="#F0A637" stroke-width="0.75" stroke-linecap="round" stroke-linejoin="round"/>
<ellipse cx="17.1738" cy="16.2538" rx="0.328125" ry="0.375" transform="rotate(15.4119 17.1738 16.2538)" fill="#FFC670"/>
<ellipse cx="16.1131" cy="17.6892" rx="0.223169" ry="0.25505" transform="rotate(15.4119 16.1131 17.6892)" fill="#FFC670"/>
<ellipse cx="14.626" cy="18.3869" rx="0.223169" ry="0.25505" transform="rotate(15.4119 14.626 18.3869)" fill="#FFC670"/>
<ellipse cx="16.1131" cy="16.2658" rx="0.223169" ry="0.25505" transform="rotate(15.4119 16.1131 16.2658)" fill="#FFC670"/>
<ellipse cx="18.5974" cy="15.9916" rx="0.223169" ry="0.25505" transform="rotate(15.4119 18.5974 15.9916)" fill="#FFC670"/>
<ellipse cx="17.5898" cy="17.0307" rx="0.156315" ry="0.178645" transform="rotate(15.4119 17.5898 17.0307)" fill="#FFC670"/>
<ellipse cx="15.3749" cy="18.9057" rx="0.156315" ry="0.178645" transform="rotate(15.4119 15.3749 18.9057)" fill="#FFC670"/>
<ellipse cx="15.7269" cy="15.428" rx="0.156315" ry="0.178645" transform="rotate(15.4119 15.7269 15.428)" fill="#FFC670"/>
<ellipse cx="17.8912" cy="15.6865" rx="0.156315" ry="0.178645" transform="rotate(15.4119 17.8912 15.6865)" fill="#FFC670"/>
<ellipse cx="16.956" cy="17.3277" rx="0.156315" ry="0.178645" transform="rotate(15.4119 16.956 17.3277)" fill="#FFC670"/>
<ellipse cx="15.3749" cy="16.5105" rx="0.156315" ry="0.178645" transform="rotate(15.4119 15.3749 16.5105)" fill="#FFC670"/>
<ellipse cx="15.6319" cy="17.1138" rx="0.156315" ry="0.178645" transform="rotate(15.4119 15.6319 17.1138)" fill="#FFC670"/>
<ellipse cx="14.0999" cy="19.8795" rx="0.156315" ry="0.178645" transform="rotate(15.4119 14.0999 19.8795)" fill="#FFC670"/>
</svg>
