<svg width="96" height="96" viewBox="0 0 96 96" fill="none" xmlns="http://www.w3.org/2000/svg">
<path d="M78.1823 20.6456L58.7526 45.5939C57.8257 46.784 58.4997 48.5326 59.9855 48.7928L73.7676 51.2061C75.5949 51.526 76.0398 53.9455 74.4459 54.8946L28.3772 82.325C26.7452 83.2968 24.8048 81.6598 25.4878 79.8874L35.3092 54.4015C35.7621 53.226 35.0287 51.9295 33.7879 51.7123L18.4968 49.0348C17.1907 48.8061 16.4647 47.3929 17.0394 46.1979L33.789 11.3685C34.1771 10.5615 35.0543 10.1108 35.9364 10.2652L76.9493 17.4467C78.4351 17.7069 79.1091 19.4555 78.1823 20.6456Z" fill="#C1EC18"/>
<path fill-rule="evenodd" clip-rule="evenodd" d="M79.7602 21.8745L60.3305 46.8228L74.1126 49.2361C77.7671 49.876 78.6569 54.7149 75.4691 56.613L29.4005 84.0435C26.1364 85.9869 22.2556 82.713 23.6216 79.1682L33.4429 53.6823L18.1519 51.0048C15.5397 50.5474 14.0877 47.721 15.237 45.3312L31.9866 10.5017C32.7628 8.88766 34.5173 7.9863 36.2814 8.2952L77.2943 15.4767C80.2659 15.997 81.6139 19.4943 79.7602 21.8745ZM58.7526 45.5939L78.1823 20.6456C79.1091 19.4555 78.4351 17.7069 76.9493 17.4467L35.9364 10.2652C35.0544 10.1108 34.1771 10.5615 33.789 11.3685L17.0394 46.1979C16.4647 47.3929 17.1908 48.8061 18.4968 49.0348L33.7879 51.7123C35.0287 51.9295 35.7622 53.226 35.3092 54.4015L25.4878 79.8874C24.8048 81.6598 26.7452 83.2968 28.3773 82.325L74.4459 54.8946C76.0398 53.9455 75.5949 51.526 73.7677 51.2061L59.9856 48.7928C58.4997 48.5326 57.8258 46.784 58.7526 45.5939Z" fill="#384B00"/>
<path d="M33.7893 11.3687C34.1773 10.5617 35.0546 10.111 35.9366 10.2655L52.2718 13.1258L39.5625 40.125L21.5676 36.7825L33.7893 11.3687Z" fill="#D1FA2D"/>
<path fill-rule="evenodd" clip-rule="evenodd" d="M37.4994 54.0103C38.0114 54.2172 38.2588 54.8 38.052 55.3121L27.927 80.3746C27.7201 80.8866 27.1373 81.1341 26.6252 80.9272C26.1131 80.7203 25.8657 80.1375 26.0726 79.6254L36.1976 54.5629C36.4045 54.0508 36.9873 53.8034 37.4994 54.0103Z" fill="#E8FF8C"/>
<path d="M74.4461 54.8946L28.3774 82.3251L65.0126 51.5648L64 49.5312L73.7678 51.2062C75.5951 51.5261 76.04 53.9456 74.4461 54.8946Z" fill="#76AC05"/>
<path d="M78.1826 20.6456L58.7529 45.5939C57.8298 46.7791 58.4946 48.5185 59.9679 48.7896L50 47L69.0001 16.0547L76.9496 17.4467C78.4354 17.7068 79.1094 19.4555 78.1826 20.6456Z" fill="#76AC05"/>
<path fill-rule="evenodd" clip-rule="evenodd" d="M29.6709 83.8507C29.5863 83.9224 29.4959 83.9869 29.4006 84.0437C26.1366 85.9872 22.2557 82.7132 23.6217 79.1684L33.4431 53.6825L18.152 51.005C15.5399 50.5476 14.0878 47.7212 15.2371 45.3314L31.9868 10.5019C32.763 8.88787 34.5174 7.98651 36.2815 8.29541L66.4451 13.5771C69.2272 14.0643 70.6418 17.2032 69.164 19.6101L53.2339 45.5552L62.695 47.2754C66.0186 47.8797 67.1429 52.077 64.5664 54.2617L29.6709 83.8507ZM62.3372 49.2431C63.999 49.5453 64.5612 51.6439 63.2729 52.7363L28.3774 82.3252C26.7454 83.297 24.805 81.66 25.488 79.8876L35.3093 54.4017C35.7623 53.2262 35.0289 51.9297 33.788 51.7125L18.497 49.035C17.1909 48.8063 16.4649 47.3931 17.0395 46.1982L33.7892 11.3687C34.1773 10.5617 35.0545 10.111 35.9365 10.2654L66.1002 15.5472C67.4912 15.7907 68.1985 17.3602 67.4596 18.5637L49.9999 47L62.3372 49.2431Z" fill="#384B00"/>
<path d="M50 47.0002L67.4597 18.5639C68.1986 17.3605 67.4913 15.791 66.1002 15.5474L62.5 14.917L46.5 46L50 47.0002Z" fill="#94D609"/>
<path fill-rule="evenodd" clip-rule="evenodd" d="M35.4363 12.1002C35.9332 12.3411 36.1407 12.9393 35.8998 13.4363L19.8998 46.4363C19.6589 46.9332 19.0607 47.1407 18.5637 46.8998C18.0668 46.6589 17.8592 46.0607 18.1002 45.5637L34.1002 12.5637C34.3411 12.0668 34.9393 11.8592 35.4363 12.1002Z" fill="#E8FF8C"/>
<path fill-rule="evenodd" clip-rule="evenodd" d="M23.9363 35.8189C24.4332 36.0599 24.6407 36.6581 24.3998 37.155L19.8998 46.4363C19.6589 46.9332 19.0607 47.1407 18.5637 46.8998C18.0668 46.6589 17.8592 46.0607 18.1002 45.5637L22.6002 36.2825C22.8411 35.7855 23.4393 35.578 23.9363 35.8189Z" fill="#F5FFE0"/>
<path d="M66.4336 32.4178C66.2314 32.8662 65.7614 33.0916 65.3838 32.9214C65.0062 32.7511 64.864 32.2495 65.0662 31.8011C65.2685 31.3528 65.7385 31.1273 66.1161 31.2976C66.4937 31.4679 66.6358 31.9694 66.4336 32.4178Z" fill="#598400"/>
<path d="M63.6338 37.6629C63.4316 38.1113 62.9616 38.3368 62.584 38.1665C62.2064 37.9962 62.0642 37.4947 62.2664 37.0463C62.4686 36.5979 62.9387 36.3724 63.3163 36.5427C63.6939 36.713 63.836 37.2145 63.6338 37.6629Z" fill="#598400"/>
<path d="M64.2006 34.5686C63.9246 35.1804 63.2832 35.4881 62.7679 35.2557C62.2527 35.0234 62.0587 34.339 62.3346 33.7271C62.6105 33.1152 63.2519 32.8075 63.7672 33.0399C64.2825 33.2723 64.4765 33.9567 64.2006 34.5686Z" fill="#598400"/>
<path d="M70.2149 28.449C70.0127 28.8974 69.5426 29.1229 69.1651 28.9526C68.7875 28.7823 68.6453 28.2808 68.8475 27.8324C69.0497 27.384 69.5197 27.1585 69.8973 27.3288C70.2749 27.4991 70.4171 28.0006 70.2149 28.449Z" fill="#598400"/>
<path d="M67.6222 29.1213C67.4775 29.4422 67.1412 29.6035 66.871 29.4817C66.6008 29.3598 66.4991 29.0009 66.6438 28.6801C66.7885 28.3592 67.1248 28.1979 67.395 28.3197C67.6652 28.4416 67.7669 28.8005 67.6222 29.1213Z" fill="#598400"/>
<path d="M68.6008 31.5286C68.4561 31.8494 68.1197 32.0108 67.8495 31.8889C67.5793 31.7671 67.4776 31.4082 67.6223 31.0873C67.767 30.7665 68.1033 30.6051 68.3735 30.727C68.6437 30.8488 68.7454 31.2077 68.6008 31.5286Z" fill="#598400"/>
<path d="M65.5436 35.6536C65.3989 35.9744 65.0626 36.1358 64.7924 36.0139C64.5222 35.8921 64.4205 35.5332 64.5652 35.2123C64.7098 34.8915 65.0462 34.7301 65.3164 34.852C65.5866 34.9738 65.6883 35.3327 65.5436 35.6536Z" fill="#598400"/>
<path d="M60.7311 39.0554C60.5864 39.3763 60.2501 39.5376 59.9799 39.4158C59.7097 39.2939 59.608 38.935 59.7527 38.6142C59.8973 38.2933 60.2337 38.132 60.5039 38.2538C60.7741 38.3757 60.8758 38.7346 60.7311 39.0554Z" fill="#598400"/>
<path d="M65.5436 29.5623C65.3989 29.8831 65.0626 30.0444 64.7924 29.9226C64.5222 29.8008 64.4205 29.4419 64.5652 29.121C64.7098 28.8001 65.0462 28.6388 65.3164 28.7607C65.5866 28.8825 65.6883 29.2414 65.5436 29.5623Z" fill="#598400"/>
<path d="M68.6008 24.5623C68.4561 24.8831 68.1197 25.0444 67.8495 24.9226C67.5793 24.8008 67.4776 24.4419 67.6223 24.121C67.767 23.8001 68.1033 23.6388 68.3735 23.7607C68.6437 23.8825 68.7454 24.2414 68.6008 24.5623Z" fill="#598400"/>
<path d="M72.4758 25.1873C72.3311 25.5081 71.9947 25.6694 71.7245 25.5476C71.4543 25.4258 71.3526 25.0669 71.4973 24.746C71.642 24.4251 71.9783 24.2638 72.2485 24.3857C72.5187 24.5075 72.6204 24.8664 72.4758 25.1873Z" fill="#598400"/>
<path fill-rule="evenodd" clip-rule="evenodd" d="M62.0595 50.6792C62.4265 51.0919 62.3895 51.724 61.9768 52.091L42.7893 69.1535C42.3766 69.5205 41.7445 69.4835 41.3775 69.0707C41.0105 68.658 41.0475 68.026 41.4603 67.659L60.6478 50.5965C61.0605 50.2295 61.6925 50.2665 62.0595 50.6792Z" fill="#B2D917"/>
<path fill-rule="evenodd" clip-rule="evenodd" d="M59.9497 15.1693C60.443 15.4177 60.6415 16.0189 60.3932 16.5122L46.7682 43.5747C46.5198 44.068 45.9186 44.2665 45.4253 44.0182C44.932 43.7698 44.7334 43.1686 44.9818 42.6753L58.6068 15.6128C58.8551 15.1195 59.4564 14.921 59.9497 15.1693Z" fill="#B2D917"/>
<path d="M54.6403 51.5761C54.4935 52.1085 53.9969 52.436 53.531 52.3076C53.0651 52.1792 52.8065 51.6434 52.9532 51.111C53.1 50.5786 53.5967 50.2511 54.0625 50.3795C54.5284 50.5079 54.7871 51.0437 54.6403 51.5761Z" fill="#E6FF84"/>
<path d="M51.5419 55.3294C51.4421 55.6915 51.1043 55.9143 50.7874 55.8269C50.4706 55.7396 50.2946 55.3752 50.3944 55.0131C50.4943 54.651 50.8321 54.4282 51.1489 54.5156C51.4658 54.6029 51.6417 54.9673 51.5419 55.3294Z" fill="#E6FF84"/>
<path d="M47.5763 57.1898C47.4765 57.5519 47.1387 57.7746 46.8218 57.6873C46.505 57.5999 46.329 57.2356 46.4289 56.8734C46.5287 56.5113 46.8665 56.2886 47.1833 56.3759C47.5002 56.4633 47.6761 56.8276 47.5763 57.1898Z" fill="#E6FF84"/>
<path d="M51.5419 51.5335C51.4421 51.8956 51.1043 52.1184 50.7874 52.031C50.4706 51.9437 50.2946 51.5793 50.3944 51.2172C50.4943 50.8551 50.8321 50.6323 51.1489 50.7197C51.4658 50.807 51.6417 51.1714 51.5419 51.5335Z" fill="#E6FF84"/>
<path d="M58.1669 50.8026C58.0671 51.1647 57.7293 51.3874 57.4124 51.3001C57.0956 51.2127 56.9196 50.8484 57.0194 50.4862C57.1193 50.1241 57.4571 49.9014 57.7739 49.9887C58.0908 50.0761 58.2667 50.4404 58.1669 50.8026Z" fill="#E6FF84"/>
<path d="M55.308 53.526C55.238 53.7797 55.0014 53.9357 54.7795 53.8745C54.5576 53.8133 54.4343 53.5581 54.5043 53.3045C54.5742 53.0508 54.8108 52.8948 55.0327 52.956C55.2546 53.0172 55.3779 53.2724 55.308 53.526Z" fill="#E6FF84"/>
<path d="M49.4017 58.526C49.3318 58.7797 49.0952 58.9357 48.8733 58.8745C48.6513 58.8133 48.5281 58.5581 48.598 58.3045C48.6679 58.0508 48.9045 57.8948 49.1265 57.956C49.3484 58.0172 49.4716 58.2724 49.4017 58.526Z" fill="#E6FF84"/>
<path d="M50.3402 49.2521C50.2703 49.5057 50.0337 49.6618 49.8117 49.6006C49.5898 49.5394 49.4666 49.2842 49.5365 49.0305C49.6064 48.7769 49.843 48.6209 50.0649 48.6821C50.2869 48.7432 50.4101 48.9985 50.3402 49.2521Z" fill="#E6FF84"/>
<path d="M56.1117 49.9416C56.0417 50.1952 55.8051 50.3512 55.5832 50.29C55.3613 50.2289 55.238 49.9736 55.308 49.72C55.3779 49.4664 55.6145 49.3103 55.8364 49.3715C56.0584 49.4327 56.1816 49.6879 56.1117 49.9416Z" fill="#E6FF84"/>
<path d="M53.6178 54.318C53.5478 54.5717 53.3113 54.7277 53.0893 54.6665C52.8674 54.6053 52.7441 54.3501 52.8141 54.0965C52.884 53.8428 53.1206 53.6868 53.3425 53.748C53.5645 53.8092 53.6877 54.0644 53.6178 54.318Z" fill="#E6FF84"/>
<path d="M49.4017 52.1388C49.3318 52.3925 49.0952 52.5485 48.8733 52.4873C48.6513 52.4261 48.5281 52.1709 48.598 51.9173C48.6679 51.6636 48.9045 51.5076 49.1265 51.5688C49.3484 51.63 49.4716 51.8852 49.4017 52.1388Z" fill="#E6FF84"/>
<path d="M50.087 53.7477C50.0171 54.0013 49.7805 54.1574 49.5586 54.0962C49.3366 54.035 49.2134 53.7798 49.2833 53.5262C49.3532 53.2725 49.5898 53.1165 49.8118 53.1777C50.0337 53.2389 50.1569 53.4941 50.087 53.7477Z" fill="#E6FF84"/>
<path d="M46.0016 61.1227C45.9316 61.3763 45.695 61.5324 45.4731 61.4712C45.2512 61.41 45.1279 61.1548 45.1979 60.9012C45.2678 60.6475 45.5044 60.4915 45.7263 60.5527C45.9482 60.6139 46.0715 60.8691 46.0016 61.1227Z" fill="#E6FF84"/>
</svg>
