<svg width="22" height="22" viewBox="0 0 22 22" fill="none" xmlns="http://www.w3.org/2000/svg">
<path d="M18.5589 18.2357C18.4492 18.2225 18.3394 18.1874 18.2383 18.128L15.6385 16.6253C15.0193 17.1379 14.3166 17.5494 13.5524 17.8375V19.9166C14.0421 19.7758 14.523 19.5931 14.9863 19.3688C15.4123 19.1643 15.9261 19.3423 16.1304 19.7714C16.3368 20.1981 16.1567 20.7129 15.7307 20.9177C14.2485 21.6327 12.6258 22 10.9833 22C10.632 22 10.2784 21.9825 9.92492 21.9495C7.00444 21.6657 4.37162 20.2619 2.50736 17.9937C0.640887 15.7277 -0.230862 12.8677 0.0524014 9.94384C0.33347 7.0178 1.73441 4.37996 3.99834 2.51214C6.26005 0.64211 9.11465 -0.231302 12.0329 0.0525013C14.9534 0.334105 17.5862 1.73773 19.4504 4.00595C21.3169 6.27419 22.1887 9.13203 21.9055 12.0581C21.699 14.2185 20.8558 16.2579 19.4702 17.9564C19.244 18.2335 18.8817 18.3325 18.5589 18.2357ZM10.1211 3.66058C10.4026 3.62758 10.6887 3.61012 10.9788 3.61012C11.269 3.61012 11.5549 3.62758 11.8364 3.66058V1.75956C11.2558 1.7056 10.6824 1.70715 10.1211 1.75918V3.66058ZM15.6392 5.28878L17.3708 4.28865C16.3129 3.27505 15.0118 2.5066 13.5518 2.08425V4.07715C14.3159 4.36492 15.0202 4.77703 15.6392 5.28878ZM8.40596 2.08492C6.96486 2.5043 5.65665 3.26778 4.58747 4.28886L6.31838 5.28878C6.93736 4.77713 7.64188 4.3651 8.40596 4.07708V2.08492ZM16.5966 10.9574C16.5966 7.85372 14.0765 5.32872 10.9789 5.32872C7.88124 5.32872 5.36112 7.85372 5.36112 10.9574C5.36112 14.061 7.88124 16.586 10.9789 16.586C14.0765 16.586 16.5966 14.061 16.5966 10.9574ZM4.24195 8.05706C4.4704 7.52589 4.75946 7.02701 5.10077 6.56923L3.44117 5.61039C3.10945 6.07379 2.81964 6.57047 2.57629 7.09479L4.24195 8.05706ZM16.857 6.5693C17.1982 7.0271 17.4874 7.52597 17.7158 8.05689L19.3793 7.09582C19.1366 6.5742 18.8471 6.07726 18.5149 5.6114L16.857 6.5693ZM13.3375 11.9835C13.3375 10.8933 12.4446 10.0067 11.3474 10.0067H10.7771C10.6325 10.0067 10.5059 9.869 10.5059 9.67491C10.5059 9.52442 10.6224 9.4107 10.7771 9.4107H11.8366C12.3101 9.4107 12.6942 9.02594 12.6942 8.55139C12.6942 8.07685 12.3101 7.69207 11.8366 7.69207V7.56296C11.8366 7.08841 11.4525 6.70364 10.9789 6.70364C10.5054 6.70364 10.1213 7.08841 10.1213 7.56296V7.80322C9.34723 8.07427 8.79063 8.81133 8.79063 9.71168C8.79063 10.8224 9.68175 11.7253 10.7771 11.7253H11.3474C11.5039 11.7253 11.6223 11.8365 11.6223 11.9835V12.3281C11.6223 12.4777 11.5039 12.5897 11.3474 12.5897H9.6065C9.13294 12.5897 8.74888 12.9745 8.74888 13.4491C8.74888 13.9236 9.13294 14.3084 9.6065 14.3084H10.1213V14.3947C10.1213 14.8693 10.5049 15.2541 10.9789 15.2541C11.4525 15.2541 11.8366 14.8693 11.8366 14.3947V14.2477C12.6978 14.0305 13.3375 13.2524 13.3375 12.3281V11.9835ZM3.74479 12.161C3.68006 11.7694 3.64577 11.367 3.64577 10.9572C3.64577 10.5473 3.68006 10.1454 3.74479 9.75368L1.99392 8.74207C1.88335 9.18481 1.80401 9.64089 1.75896 10.1085C1.6569 11.1676 1.73826 12.2028 1.97588 13.1829L3.74479 12.161ZM20.1987 11.8921C20.3033 10.8057 20.2152 9.74452 19.9633 8.74242L18.2129 9.75384C18.2777 10.1454 18.3119 10.5473 18.3119 10.9571C18.3119 11.3673 18.2777 11.7691 18.2129 12.1612L19.9809 13.1824C20.0835 12.7597 20.1567 12.329 20.1987 11.8921ZM5.10079 15.3453C4.75956 14.8875 4.47045 14.3885 4.24188 13.8576L2.54681 14.8369C2.78535 15.3608 3.0714 15.8596 3.39984 16.328L5.10079 15.3453ZM17.7158 13.8576L19.4082 14.8353C19.1713 15.3543 18.8853 15.8527 18.5529 16.3253L16.857 15.3454C17.1982 14.8876 17.4872 14.3887 17.7158 13.8576ZM6.31819 16.6257L4.53185 17.658C5.59917 18.6978 6.92024 19.4865 8.40596 19.9163V17.8373C7.64158 17.5494 6.93727 17.1377 6.31819 16.6257ZM11.8364 18.2541C11.5549 18.287 11.269 18.3047 10.9788 18.3047C10.6887 18.3047 10.4026 18.287 10.1211 18.2541V20.2411C10.6947 20.2944 11.2688 20.2944 11.8364 20.2418V18.2541Z" fill="#7C7C80"/>
</svg>
