<svg width="22" height="22" viewBox="0 0 22 22" fill="none" xmlns="http://www.w3.org/2000/svg">
<path d="M15.6638 19.0742C15.7077 19.0488 15.7514 19.0231 15.7949 18.997C15.8319 18.9748 15.87 18.9554 15.9089 18.9387C16.287 18.7762 16.7396 18.8724 16.9868 19.2114C17.2594 19.5853 17.1788 20.1124 16.7852 20.3558C16.7425 20.3822 16.6997 20.4083 16.6567 20.4341C16.5838 20.4778 16.5105 20.5206 16.4368 20.5625C14.3942 21.7239 12.0222 22.2062 9.66827 21.9191C6.90099 21.5816 4.36508 20.2059 2.57322 18.0703C0.781355 15.9346 -0.132785 13.1983 0.0156067 10.4145C0.163999 7.63063 1.36385 5.00698 3.3726 3.07392C5.38134 1.14087 8.04912 0.0426247 10.8366 0.00121491C13.6241 -0.0401949 16.3233 0.978321 18.3886 2.85085C20.4539 4.72338 21.7311 7.31023 21.9621 10.0884C22.1587 12.4517 21.5857 14.8034 20.3467 16.7999C20.302 16.8719 20.2564 16.9435 20.21 17.0147C20.1826 17.0567 20.1548 17.0985 20.1268 17.1401C19.8685 17.524 19.3387 17.5844 18.9755 17.2976C18.6462 17.0376 18.5675 16.5816 18.7444 16.21C18.7625 16.1718 18.7834 16.1345 18.807 16.0984C18.8348 16.0559 18.8622 16.0132 18.8892 15.9703C19.9627 14.2664 20.4606 12.2519 20.2922 10.2273C20.0964 7.87231 19.0137 5.67952 17.2631 4.09224C15.5124 2.50495 13.2243 1.64159 10.8615 1.67669C8.49864 1.7118 6.23725 2.64274 4.5345 4.28133C2.83176 5.91991 1.81468 8.14389 1.6889 10.5037C1.56311 12.8634 2.33799 15.1829 3.8569 16.9932C5.3758 18.8036 7.52541 19.9696 9.87114 20.2557C11.8878 20.5017 13.92 20.0815 15.6638 19.0742Z" fill="#F1A640"/>
<path d="M4.02281 12.4136C3.34909 12.0864 2.43679 12.2689 1.7778 12.6185C1.35855 12.841 0.838334 12.6814 0.615872 12.2622C0.39341 11.8429 0.552943 11.3227 0.972197 11.1003C1.84962 10.6347 3.38665 10.1941 4.7735 10.8674C6.25606 11.5872 6.92906 13.0897 7.45334 14.2601L7.45915 14.2731C8.04168 15.5735 8.47787 16.5421 9.30703 17.0603C10.2553 17.653 10.4053 18.6796 10.3463 19.4154C10.2872 20.1521 10.0093 20.8779 9.73269 21.2822C9.46468 21.6739 8.92987 21.7741 8.53816 21.5061C8.14646 21.2381 8.04618 20.7033 8.31419 20.3116C8.41 20.1716 8.59618 19.7372 8.63303 19.2779C8.66995 18.8178 8.54779 18.6126 8.3961 18.5178C7.10893 17.7133 6.4775 16.2943 5.97776 15.1712C5.94828 15.1049 5.91925 15.0397 5.89058 14.9757C5.31846 13.6985 4.86037 12.8202 4.02281 12.4136Z" fill="#F1A640"/>
<path d="M15.8289 1.95534C16.1254 1.58472 16.6662 1.52464 17.0368 1.82113C17.1117 1.88102 17.1732 1.95182 17.1914 1.97278L17.1937 1.97552C17.2257 2.01215 17.2609 2.05481 17.297 2.09991C17.3702 2.19106 17.4617 2.3101 17.5646 2.44881C17.771 2.72683 18.0338 3.0975 18.3029 3.50658C18.8167 4.28763 19.4391 5.33404 19.6514 6.14067C19.9133 7.13608 19.8301 8.21993 19.5822 9.08765C19.4572 9.52497 19.2809 9.9416 19.0566 10.2854C18.8567 10.5916 18.5539 10.9389 18.1256 11.1045C18.1172 11.1121 18.1059 11.1229 18.0917 11.1376C18.0266 11.2049 17.9391 11.3141 17.8321 11.4722C17.6191 11.787 17.3811 12.2177 17.1414 12.7023C16.6637 13.668 16.2252 14.7541 16.0202 15.3281C15.8199 15.889 15.3812 16.5282 14.5735 16.5124C13.9373 16.5 13.45 16.0515 13.1621 15.721C12.5225 14.9869 11.9728 13.789 11.7762 12.7439C11.6427 12.0343 11.4798 11.2616 11.3034 10.5023C11.0156 9.26294 10.2762 8.47214 9.23477 7.67211C8.95953 7.46066 8.64973 7.24109 8.3215 7.00846C7.46827 6.40373 6.49046 5.71071 5.67106 4.84236C5.00558 4.13711 4.75234 3.33015 4.8165 2.66722C4.86221 2.19481 5.28224 1.8489 5.75465 1.89462C6.22707 1.94034 6.57297 2.36037 6.52726 2.83278C6.51683 2.94053 6.55148 3.27103 6.92113 3.66276C7.61771 4.40097 8.36928 4.93275 9.16648 5.49683C9.52912 5.75343 9.90121 6.0167 10.2819 6.30913C11.4487 7.2055 12.5574 8.30419 12.9776 10.1135C13.159 10.8946 13.327 11.691 13.4653 12.4262C13.6132 13.2119 14.0453 14.1182 14.458 14.592L14.4588 14.5929C14.6993 13.9416 15.1302 12.8917 15.6008 11.9403C15.8553 11.4258 16.1328 10.9166 16.4086 10.509C16.546 10.3059 16.6962 10.1083 16.856 9.94294C16.9961 9.79804 17.2078 9.60944 17.4852 9.50843C17.4976 9.49775 17.5455 9.45599 17.6172 9.34599C17.7259 9.17949 17.8397 8.9301 17.9296 8.61547C18.1113 7.97929 18.157 7.21548 17.9892 6.57808C17.8578 6.07846 17.3916 5.24856 16.867 4.45123C16.617 4.07112 16.373 3.72708 16.1846 3.47336C16.0902 3.3462 16.0123 3.24511 15.9564 3.17545C15.9316 3.1445 15.9137 3.12306 15.9024 3.10987C15.5868 2.80525 15.5495 2.30469 15.8289 1.95534ZM15.8878 3.09344C15.8878 3.09344 15.89 3.09562 15.895 3.10135C15.8904 3.09653 15.8878 3.09344 15.8878 3.09344ZM14.3334 14.9014C14.3334 14.9014 14.3354 14.8975 14.3401 14.8918C14.3358 14.899 14.3334 14.9014 14.3334 14.9014ZM18.1444 11.0887L18.1429 11.0898L18.1444 11.0887Z" fill="#F1A640"/>
</svg>
