<svg width="19" height="22" viewBox="0 0 19 22" fill="none" xmlns="http://www.w3.org/2000/svg">
<path d="M18.9062 13.4926C18.9062 13.9678 18.5224 14.3506 18.046 14.3506C17.5714 14.3506 17.1876 13.9678 17.1876 13.4926V10.9098C16.6413 11.4686 15.8793 11.8162 15.0399 11.8162C13.3799 11.8162 12.0319 10.4676 12.0319 8.80881C12.0319 7.15001 13.3799 5.8014 15.0399 5.8014C15.5466 5.8014 16.0249 5.9268 16.4446 6.1512C15.2063 3.5376 12.5443 1.72481 9.45311 1.71821C7.42258 1.71821 5.49604 2.52341 4.0327 3.9864C2.541 5.4758 1.71857 7.44261 1.71857 9.52601V17.3647C1.71857 18.1367 1.97192 18.898 2.42945 19.503C2.91156 20.141 3.22729 20.2817 3.30859 20.2817C3.30859 20.2817 3.4069 20.251 3.5487 20.1124C3.74532 19.9187 3.95518 19.6174 4.16126 19.327C4.69441 18.5657 5.29941 17.7034 6.31657 17.7034C7.2978 17.7034 7.90847 18.5197 8.4473 19.239C8.79328 19.7032 9.22434 20.2817 9.53819 20.2817C9.80854 20.2817 10.1507 19.7737 10.4532 19.3247C10.941 18.6032 11.546 17.7034 12.6331 17.7034C13.69 17.7034 14.3158 18.5724 14.8187 19.2697C15.2441 19.8617 15.5712 20.2817 15.8982 20.2817C16.2423 20.2817 16.5562 19.8374 16.7131 19.5757C17.0232 19.0497 17.1876 18.436 17.1876 17.7957C17.1876 17.3207 17.5714 16.9356 18.046 16.9356C18.5224 16.9356 18.9062 17.3207 18.9062 17.7957C18.9062 18.7417 18.6585 19.6614 18.1916 20.4512C17.4334 21.7317 16.5259 22 15.8982 22C14.6656 22 13.9471 21.0012 13.4234 20.273C13.1946 19.954 12.8109 19.4217 12.6331 19.4217C12.4611 19.4217 12.0811 19.9847 11.8769 20.2862C11.391 21.01 10.7217 22 9.53819 22C8.36411 22 7.64567 21.0407 7.07092 20.2687C6.88186 20.0177 6.49617 19.5007 6.31657 19.426C6.13318 19.5052 5.76829 20.0287 5.56788 20.3127C5.0404 21.065 4.38435 22 3.30859 22C2.54856 22 1.79042 21.5094 1.05875 20.5392C0.376234 19.6372 0 18.5087 0 17.3647V9.52601C0 8.24341 0.255234 6.9938 0.758139 5.8124C1.24403 4.6728 1.936 3.6498 2.81703 2.76981C4.61123 0.979014 6.97639 -0.00438529 9.47012 1.47012e-05C11.9922 0.0044147 14.3612 0.990014 16.144 2.77421C17.925 4.5584 18.9062 6.93001 18.9062 9.45341V13.4926ZM6.01561 8.80861C6.01561 10.4671 7.36492 11.8164 9.02342 11.8164C10.6819 11.8164 12.0312 10.4671 12.0312 8.80861C12.0312 7.1501 10.6819 5.8008 9.02342 5.8008C7.36492 5.8008 6.01561 7.1501 6.01561 8.80861ZM9.75397 9.66789C9.84675 9.66789 9.93611 9.65294 10.0198 9.62561C9.78299 9.91359 9.4244 10.0977 9.02332 10.0977C8.31256 10.0977 7.73436 9.51939 7.73436 8.80861C7.73436 8.09782 8.31256 7.51954 9.02332 7.51954C9.4244 7.51954 9.78299 7.70362 10.0198 7.9916C9.93611 7.96427 9.84675 7.94932 9.75397 7.94932C9.27929 7.94932 8.89443 8.33397 8.89443 8.80861C8.89443 9.28324 9.27929 9.66789 9.75397 9.66789ZM15.7696 9.66789C15.2949 9.66789 14.91 9.28324 14.91 8.80861C14.91 8.33397 15.2949 7.94932 15.7696 7.94932C15.8624 7.94932 15.9517 7.96427 16.0354 7.9916C15.7986 7.70362 15.44 7.51954 15.0389 7.51954C14.3282 7.51954 13.75 8.09782 13.75 8.80861C13.75 9.51939 14.3282 10.0977 15.0389 10.0977C15.44 10.0977 15.7986 9.91359 16.0354 9.62561C15.9517 9.65294 15.8624 9.66789 15.7696 9.66789Z" fill="#F1A640"/>
</svg>
