<svg width="32" height="32" viewBox="0 0 32 32" fill="none" xmlns="http://www.w3.org/2000/svg">
<path d="M8.2575 11.845C8.32277 11.717 8.41497 11.6046 8.52778 11.5156C8.64058 11.4265 8.77131 11.363 8.911 11.3292C9.05069 11.2955 9.19602 11.2924 9.33703 11.3201C9.47803 11.3478 9.61137 11.4058 9.72787 11.4899L12.7655 13.6825C12.9583 13.8217 13.0949 14.0253 13.1507 14.2564C13.2065 14.4876 13.1778 14.7311 13.0697 14.9429L11.3675 18.28C11.3022 18.408 11.21 18.5204 11.0972 18.6094C10.9844 18.6985 10.8537 18.762 10.714 18.7958C10.5743 18.8295 10.429 18.8326 10.288 18.8049C10.147 18.7772 10.0136 18.7192 9.89713 18.6351L6.8595 16.4425C6.66672 16.3033 6.53008 16.0997 6.47428 15.8686C6.41848 15.6374 6.4472 15.394 6.55525 15.1821L8.2575 11.845Z" fill="#FE795A"/>
<path d="M23.7425 11.845C23.6772 11.717 23.585 11.6046 23.4722 11.5156C23.3594 11.4265 23.2287 11.363 23.089 11.3292C22.9493 11.2955 22.804 11.2924 22.663 11.3201C22.522 11.3478 22.3886 11.4058 22.2721 11.4899L19.2345 13.6825C19.0417 13.8217 18.9051 14.0253 18.8493 14.2564C18.7935 14.4876 18.8222 14.7311 18.9302 14.9429L20.6325 18.28C20.6978 18.408 20.79 18.5204 20.9028 18.6094C21.0156 18.6985 21.1463 18.762 21.286 18.7958C21.4257 18.8295 21.571 18.8326 21.712 18.8049C21.853 18.7772 21.9864 18.7192 22.1029 18.6351L25.1405 16.4425C25.3333 16.3033 25.4699 16.0997 25.5257 15.8686C25.5815 15.6374 25.5528 15.394 25.4447 15.1821L23.7425 11.845Z" fill="#F97D59"/>
<path d="M26.0157 25.2188C26.0156 25.0116 25.9333 24.813 25.7868 24.6665C25.6403 24.52 25.4417 24.4376 25.2345 24.4375H4.922C4.71484 24.4376 4.5162 24.52 4.36972 24.6665C4.22323 24.813 4.14088 25.0116 4.14075 25.2188V26.7812C4.14088 26.9884 4.22323 27.187 4.36972 27.3335C4.5162 27.48 4.71484 27.5624 4.922 27.5625H25.2345C25.4417 27.5624 25.6403 27.48 25.7868 27.3335C25.9333 27.187 26.0156 26.9884 26.0157 26.7812V25.2188Z" fill="#FFA652"/>
<path d="M19.0157 25.2188C19.0156 25.0116 18.9333 24.813 18.7868 24.6665C18.6403 24.52 18.4417 24.4376 18.2345 24.4375H4.922C4.71484 24.4376 4.5162 24.52 4.36972 24.6665C4.22323 24.813 4.14088 25.0116 4.14075 25.2188V26.7812C4.14088 26.9884 4.22323 27.187 4.36972 27.3335C4.5162 27.48 4.71484 27.5624 4.922 27.5625H18.2345C18.4417 27.5624 18.6403 27.48 18.7868 27.3335C18.9333 27.187 19.0156 26.9884 19.0157 26.7812V25.2188Z" fill="#FFB443"/>
<path d="M11.3907 25.2188C11.3906 25.0116 11.3083 24.813 11.1618 24.6665C11.0153 24.52 10.8167 24.4376 10.6095 24.4375H4.922C4.71484 24.4376 4.5162 24.52 4.36972 24.6665C4.22323 24.813 4.14088 25.0116 4.14075 25.2188V26.7812C4.14088 26.9884 4.22323 27.187 4.36972 27.3335C4.5162 27.48 4.71484 27.5624 4.922 27.5625H10.6095C10.8167 27.5624 11.0153 27.48 11.1618 27.3335C11.3083 27.187 11.3906 26.9884 11.3907 26.7812V25.2188Z" fill="#FFBF50"/>
<path d="M4.2295 17.0865C4.27225 16.9493 4.34683 16.8241 4.44715 16.7212C4.54747 16.6183 4.67069 16.5405 4.80678 16.4943C4.94286 16.4481 5.08795 16.4346 5.23021 16.4551C5.37247 16.4756 5.50787 16.5294 5.62538 16.6122L8.31313 18.5074C8.47068 18.6185 8.58897 18.7766 8.651 18.9591C8.71304 19.1415 8.71562 19.339 8.65838 19.523L7.68188 22.6635C7.63913 22.8008 7.56455 22.9259 7.46423 23.0289C7.36391 23.1318 7.24069 23.2095 7.1046 23.2558C6.96852 23.302 6.82343 23.3155 6.68117 23.295C6.53891 23.2745 6.40351 23.2207 6.286 23.1379L3.59825 21.2427C3.4407 21.1316 3.32241 20.9735 3.26038 20.791C3.19834 20.6085 3.19576 20.4111 3.253 20.227L4.2295 17.0865Z" fill="#FF5179"/>
<path d="M27.6819 17.0865C27.6391 16.9493 27.5646 16.8241 27.4642 16.7212C27.3639 16.6183 27.2407 16.5405 27.1046 16.4943C26.9685 16.4481 26.8234 16.4346 26.6812 16.4551C26.5389 16.4756 26.4035 16.5294 26.286 16.6122L23.5983 18.5074C23.4407 18.6185 23.3224 18.7766 23.2604 18.9591C23.1983 19.1415 23.1958 19.339 23.253 19.523L24.2295 22.6635C24.2722 22.8008 24.3468 22.9259 24.4471 23.0289C24.5475 23.1318 24.6707 23.2095 24.8068 23.2558C24.9429 23.302 25.0879 23.3155 25.2302 23.295C25.3725 23.2745 25.5079 23.2207 25.6254 23.1379L28.3131 21.2427C28.4707 21.1316 28.589 20.9735 28.651 20.791C28.713 20.6085 28.7156 20.4111 28.6584 20.227L27.6819 17.0865Z" fill="#EC004A"/>
<path d="M14.5396 6.86177C14.6913 6.60999 14.9054 6.40169 15.1613 6.25709C15.4172 6.11249 15.7061 6.0365 16 6.0365C16.2939 6.0365 16.5828 6.11249 16.8387 6.25709C17.0946 6.40169 17.3087 6.60999 17.4604 6.86177L22.25 14.8125L28.3327 11.0233C28.4526 10.9486 28.5923 10.912 28.7334 10.9183C28.8745 10.9246 29.0104 10.9735 29.1231 11.0586C29.2359 11.1437 29.3202 11.261 29.3649 11.3949C29.4097 11.5289 29.4128 11.6733 29.3739 11.809L25.75 24.4375H6.25L2.62612 11.809C2.58718 11.6733 2.59029 11.5289 2.63505 11.3949C2.67981 11.261 2.76412 11.1437 2.87686 11.0586C2.98959 10.9735 3.12547 10.9246 3.26657 10.9183C3.40767 10.912 3.54737 10.9486 3.66725 11.0233L9.75 14.8125L14.5396 6.86177Z" fill="#FF9B4C"/>
<path d="M5.45975 21.6835L2.62612 11.809C2.58718 11.6733 2.59029 11.5289 2.63505 11.3949C2.67981 11.261 2.76412 11.1437 2.87686 11.0586C2.98959 10.9735 3.12547 10.9246 3.26657 10.9183C3.40767 10.912 3.54737 10.9486 3.66725 11.0233L9.75 14.8125L14.5396 6.86177C14.6913 6.60999 14.9054 6.40169 15.1613 6.25709C15.4172 6.11249 15.7061 6.0365 16 6.0365C16.2939 6.0365 16.5828 6.11249 16.8387 6.25709C17.0946 6.40169 17.3087 6.60999 17.4604 6.86177L22.1686 14.6774L22.0157 17.0625C22.0157 19.7531 19.8314 21.9375 17.1407 21.9375H7.01575C6.48672 21.9381 5.96114 21.8523 5.45975 21.6835Z" fill="#FFD93B"/>
<path d="M22.1686 14.6774L22.0158 17.0625C22.0158 19.7532 19.8314 21.9375 17.1408 21.9375H15.7658V6.0528C16.0964 6.00692 16.4332 6.05912 16.7345 6.20294C17.0357 6.34675 17.2881 6.57585 17.4604 6.8618L22.1686 14.6774Z" fill="#FFB73E"/>
<path d="M15.1702 14.7057C15.2356 14.6077 15.3242 14.5273 15.428 14.4718C15.5319 14.4162 15.6479 14.3871 15.7657 14.3871C15.8836 14.3871 15.9996 14.4162 16.1035 14.4718C16.2073 14.5273 16.2959 14.6077 16.3612 14.7057L18.0011 17.1655C18.0795 17.2831 18.1213 17.4212 18.1213 17.5625C18.1213 17.7038 18.0795 17.8419 18.0011 17.9595L16.3612 20.4192C16.2959 20.5173 16.2073 20.5976 16.1035 20.6532C15.9996 20.7088 15.8836 20.7379 15.7657 20.7379C15.6479 20.7379 15.5319 20.7088 15.428 20.6532C15.3242 20.5976 15.2356 20.5173 15.1702 20.4192L13.5304 17.9595C13.452 17.8419 13.4102 17.7038 13.4102 17.5625C13.4102 17.4212 13.452 17.2831 13.5304 17.1655L15.1702 14.7057Z" fill="#FF2A5C"/>
<path d="M14.2161 17.4375C14.1746 17.4375 14.1338 17.4258 14.0986 17.4039C14.0633 17.382 14.0348 17.3506 14.0163 17.3134C13.9979 17.2761 13.9902 17.2345 13.9942 17.1931C13.9982 17.1517 14.0136 17.1123 14.0387 17.0792L15.3652 15.3381C15.4232 15.262 15.5234 15.2314 15.614 15.262C15.6582 15.2769 15.6967 15.3053 15.7239 15.3432C15.7511 15.3812 15.7658 15.4267 15.7657 15.4734V17.2144C15.7658 17.2437 15.7601 17.2727 15.7489 17.2998C15.7377 17.3269 15.7213 17.3516 15.7005 17.3723C15.6798 17.393 15.6552 17.4094 15.6281 17.4206C15.601 17.4318 15.5719 17.4376 15.5426 17.4375H14.2161Z" fill="white" fill-opacity="0.3"/>
</svg>
