<svg width="22" height="22" viewBox="0 0 22 22" fill="none" xmlns="http://www.w3.org/2000/svg">
<g clip-path="url(#clip0_39_4550)">
<path d="M15.2042 7.58621H6.85865C5.9832 7.58621 5.3103 6.85641 5.3103 5.90814V1.67807C5.3103 0.729793 6.05072 0 6.85789 0H15.1375C16.0122 0 16.6851 0.729793 16.6851 1.67807V5.90814C16.7533 6.85641 16.0122 7.58621 15.2042 7.58621Z" fill="#5096F5"/>
<path d="M7.58618 7.58621H9.68149V0H7.58618V7.58621ZM12.3185 7.58621H14.4138V0H12.3185V7.58621Z" fill="white"/>
<path d="M11 22C15.8157 22 19.7242 18.0916 19.7242 13.2759C19.7242 8.46017 15.8157 4.55176 11 4.55176C6.18429 4.55176 2.27588 8.46017 2.27588 13.2759C2.27588 18.0916 6.18429 22 11 22Z" fill="#FEDE3A"/>
<path d="M16.6897 13.2759C16.6897 10.1147 14.1612 7.58623 11 7.58623C10.252 7.58312 9.5107 7.72816 8.81899 8.01299C8.12729 8.29782 7.49883 8.7168 6.96988 9.24576C6.44092 9.77471 6.02194 10.4032 5.73711 11.0949C5.45228 11.7866 5.30724 12.5278 5.31035 13.2759C5.31035 16.4371 7.83883 18.9655 11 18.9655C14.1612 18.9655 16.6897 16.4371 16.6897 13.2759Z" fill="#FEDE3A"/>
<path d="M16.8035 13.2759C16.8035 10.0518 14.2242 7.47246 11 7.47246C7.7759 7.47246 5.19659 10.0518 5.19659 13.2759C5.19659 16.5001 7.7759 19.0794 11 19.0794C14.2242 19.0794 16.8035 16.5001 16.8035 13.2759ZM17.4483 13.2759C17.4483 16.8225 14.5466 19.7242 11 19.7242C7.45348 19.7242 4.55176 16.8225 4.55176 13.2759C4.55176 9.72936 7.45348 6.82764 11 6.82764C14.5466 6.82764 17.4483 9.72936 17.4483 13.2759Z" fill="#FEBC00"/>
<path d="M11.88 17.128H10.521V11.521L9 12.313V10.9L10.755 10H11.88V17.128Z" fill="white"/>
</g>
<defs>
<clipPath id="clip0_39_4550">
<rect width="22" height="22" fill="white"/>
</clipPath>
</defs>
</svg>
