<svg width="22" height="22" viewBox="0 0 22 22" fill="none" xmlns="http://www.w3.org/2000/svg">
<g clip-path="url(#clip0_39_4483)">
<path d="M15.2042 7.58621H6.85865C5.9832 7.58621 5.3103 6.85641 5.3103 5.90814V1.67807C5.3103 0.729793 6.05072 0 6.85789 0H15.1375C16.0122 0 16.6851 0.729793 16.6851 1.67807V5.90814C16.7533 6.85641 16.0122 7.58621 15.2042 7.58621Z" fill="#5096F5"/>
<path d="M7.58618 7.58621H9.68149V0H7.58618V7.58621ZM12.3185 7.58621H14.4138V0H12.3185V7.58621Z" fill="white"/>
<path d="M11 22C15.8157 22 19.7242 18.0916 19.7242 13.2759C19.7242 8.46017 15.8157 4.55176 11 4.55176C6.18429 4.55176 2.27588 8.46017 2.27588 13.2759C2.27588 18.0916 6.18429 22 11 22Z" fill="#EEEEEE"/>
<path d="M16.6897 13.2759C16.6897 10.1147 14.1612 7.58623 11 7.58623C10.252 7.58312 9.5107 7.72816 8.81899 8.01299C8.12729 8.29782 7.49883 8.7168 6.96988 9.24576C6.44092 9.77471 6.02194 10.4032 5.73711 11.0949C5.45228 11.7866 5.30724 12.5278 5.31035 13.2759C5.31035 16.4371 7.83883 18.9655 11 18.9655C14.1612 18.9655 16.6897 16.4371 16.6897 13.2759Z" fill="#CCCCCC"/>
<path d="M16.8035 13.2759C16.8035 10.0518 14.2242 7.47246 11 7.47246C7.7759 7.47246 5.19659 10.0518 5.19659 13.2759C5.19659 16.5001 7.7759 19.0794 11 19.0794C14.2242 19.0794 16.8035 16.5001 16.8035 13.2759ZM17.4483 13.2759C17.4483 16.8225 14.5466 19.7242 11 19.7242C7.45348 19.7242 4.55176 16.8225 4.55176 13.2759C4.55176 9.72936 7.45348 6.82764 11 6.82764C14.5466 6.82764 17.4483 9.72936 17.4483 13.2759Z" fill="#999999"/>
<path d="M11.0455 10.0624C11.6736 10.0624 12.1925 10.2444 12.6022 10.6086C13.0027 10.9727 13.203 11.437 13.203 12.0196C13.203 12.584 12.9845 13.0938 12.5658 13.5581C12.3109 13.8312 11.8557 14.1771 11.2185 14.605C10.5539 15.042 10.1533 15.4243 10.0077 15.752H13.2121V16.6897H8.67859C8.67859 16.0251 8.88797 15.4516 9.32493 14.96C9.56162 14.6869 10.0623 14.2864 10.8179 13.7675C11.2367 13.4762 11.528 13.2304 11.71 13.0392C11.9922 12.7206 12.1379 12.3747 12.1379 12.0105C12.1379 11.6555 12.0378 11.3915 11.8557 11.2185C11.6645 11.0456 11.3823 10.9636 11.0091 10.9636C10.6085 10.9636 10.3081 11.1002 10.1078 11.3733C9.90755 11.6282 9.79831 12.0196 9.78011 12.5294H8.715C8.72411 11.8011 8.93349 11.2185 9.35224 10.7724C9.78011 10.2991 10.3445 10.0624 11.0455 10.0624Z" fill="white"/>
</g>
<defs>
<clipPath id="clip0_39_4483">
<rect width="22" height="22" fill="white"/>
</clipPath>
</defs>
</svg>
