<svg width="22" height="22" viewBox="0 0 22 22" fill="none" xmlns="http://www.w3.org/2000/svg">
<path d="M15.3274 7.25888H6.67259C5.76522 7.25888 5.06726 6.56092 5.06726 5.65357V1.60531C5.06724 0.697963 5.83501 0 6.67255 0H15.2576C16.165 0 16.8629 0.697963 16.8629 1.60531V5.65355C16.9327 6.56092 16.165 7.25888 15.3274 7.25888Z" fill="#5096F5"/>
<path d="M7.51013 7.25888H9.67384V0H7.51015V7.25888H7.51013ZM12.3959 7.25888H14.5596V0H12.3959V7.25888Z" fill="white"/>
<path d="M11 21.9861C15.816 21.9861 19.7246 18.0775 19.7246 13.2615C19.7246 8.4455 15.816 4.53687 11 4.53687C6.18402 4.53687 2.27539 8.44547 2.27539 13.2615C2.27539 18.0774 6.18402 21.9861 11 21.9861Z" fill="#FCC376"/>
<path d="M17.2817 13.2615C17.2817 9.77161 14.4898 6.97974 11 6.97974C7.51016 6.97974 4.71826 9.77163 4.71826 13.2615C4.71826 16.7513 7.51016 19.5432 11 19.5432C14.4898 19.5432 17.2817 16.7513 17.2817 13.2615Z" fill="#FCC376"/>
<path d="M17.2817 13.2614C17.2817 9.77157 14.4898 6.9797 11 6.9797C7.51012 6.9797 4.71823 9.7716 4.71823 13.2615C4.71823 16.7513 7.51012 19.5432 11 19.5432C14.4898 19.5432 17.2817 16.7513 17.2817 13.2614ZM17.9796 13.2614C17.9796 17.1003 14.8388 20.2411 11 20.2411C7.16113 20.2411 4.02026 17.1003 4.02026 13.2614C4.02026 9.4226 7.16113 6.28174 11 6.28174C14.8388 6.28174 17.9796 9.4226 17.9796 13.2614Z" fill="#E19547"/>
<path d="M8.18018 15.481L9.86928 15.0901C10.0507 15.9556 10.5533 16.3883 11.3629 16.3883C12.2005 16.3883 12.6332 15.9695 12.6612 15.132C12.6612 14.3223 12.0469 13.9175 10.8185 13.9175H10.0787V12.6193H10.7487C11.8934 12.6193 12.4797 12.2424 12.4797 11.4746C12.4517 10.7487 12.0748 10.3578 11.335 10.3299C10.5812 10.3858 10.1205 10.8185 9.96699 11.6282L8.36165 11.2792C8.72459 9.86928 9.7576 9.14339 11.4606 9.11548C13.1637 9.17129 14.071 9.86928 14.1688 11.2373C14.1967 12.2563 13.6383 12.9124 12.4797 13.2056C13.6523 13.415 14.2944 14.085 14.4061 15.2018C14.3223 16.7233 13.2893 17.5051 11.3071 17.5609C9.57612 17.6307 8.54311 16.9467 8.18018 15.481Z" fill="#E19547"/>
<path d="M7.901 15.2018L9.5901 14.8109C9.77156 15.6764 10.2741 16.1091 11.0837 16.1091C11.9213 16.1091 12.354 15.6904 12.382 14.8528C12.382 14.0431 11.7678 13.6383 10.5393 13.6383H9.79949V12.3401H10.4695C11.6142 12.3401 12.2005 11.9632 12.2005 11.1954C12.1726 10.4695 11.7957 10.0787 11.0558 10.0508C10.302 10.1066 9.84136 10.5393 9.68781 11.349L8.08248 11C8.44541 9.5901 9.47843 8.86421 11.1815 8.8363C12.8845 8.89212 13.7919 9.5901 13.8896 10.9581C13.9175 11.9771 13.3591 12.6332 12.2005 12.9264C13.3731 13.1358 14.0152 13.8058 14.1269 14.9226C14.0431 16.4442 13.0101 17.2259 11.0279 17.2817C9.29695 17.3515 8.26394 16.6675 7.901 15.2018Z" fill="white"/>
</svg>
