<svg width="32" height="32" viewBox="0 0 32 32" fill="none" xmlns="http://www.w3.org/2000/svg">
<g clip-path="url(#clip0_36_2921)">
<path d="M11.76 4.8736C11.76 3.6032 11.3504 2.4224 10.6016 1.5488C9.7376 0.5344 8.5056 0 7.0432 0C3.9488 0 2.3296 2.4512 2.3296 4.8736C2.3296 5.8016 2.5664 6.5376 2.816 7.3184C3.1584 8.3904 3.5872 9.728 3.5872 12.3136C3.5872 13.36 2.9024 14.848 2.176 16.4224C1.1552 18.6304 0 21.1328 0 23.8112C0 28.7647 2.6368 31.5105 2.7488 31.6255C2.9856 31.8655 3.3088 32 3.6448 32H10.5088C10.8448 32 11.168 31.8655 11.4016 31.6255C11.4016 31.6255 12.1664 30.832 12.848 29.4753C14.9248 31.1135 17.4688 32 20.1632 32C21.9264 32 23.6224 31.6225 25.2065 30.8768C25.8335 30.5825 26.1025 29.8368 25.8048 29.2127C25.5105 28.5887 24.7648 28.32 24.1376 28.6145C22.8928 29.2033 21.5552 29.5007 20.1632 29.5007C17.76 29.5007 15.5072 28.6047 13.7728 26.9727C14.0032 26.048 14.1536 24.992 14.1536 23.8112C14.1536 21.1776 13.0016 18.6752 11.9872 16.4672C11.9872 16.4672 11.8624 16.192 11.8016 16.0576C13.3664 12.9024 16.6304 10.8736 20.1632 10.8736C25.3088 10.8736 29.4945 15.0528 29.4945 20.1888C29.4945 21.7472 29.1007 23.2896 28.3552 24.6496C28.0255 25.2545 28.2465 26.016 28.8545 26.3455C29.0432 26.4513 29.2512 26.4993 29.4527 26.4993C29.8975 26.4993 30.3265 26.2655 30.5535 25.8495C31.5007 24.1248 32 22.1664 32 20.1888C32 13.6736 26.6912 8.3744 20.1632 8.3744C17.8752 8.3744 15.6576 9.0272 13.744 10.2624C12.5504 11.0336 11.5104 12.0064 10.672 13.1328C10.6016 12.8384 10.5632 12.5632 10.5632 12.3136C10.5632 9.8496 10.9696 8.4736 11.296 7.3696C11.536 6.5632 11.76 5.7984 11.76 4.8736ZM4.83437 4.87475C4.83437 3.77938 5.4135 2.5 7.04475 2.5C9.14857 2.5 9.25513 4.478 9.25513 4.87475C9.25513 5.4368 9.10305 5.95143 8.89262 6.66442C8.6676 7.4263 8.38952 8.3686 8.21845 9.6875H5.9369C5.75478 8.2809 5.44798 7.32498 5.20085 6.5552C4.98822 5.89178 4.83437 5.41237 4.83437 4.87475ZM6.09253 12.1875H8.06007C8.06007 12.1875 8.05915 12.2706 8.05915 12.3122C8.05915 13.9136 8.861 15.6604 9.71035 17.5076C10.663 19.5799 11.6477 21.7232 11.6477 23.8129C11.6477 26.7993 10.4921 28.7278 9.91883 29.5H4.2338C3.8946 29.043 3.35243 28.1825 2.96568 26.9377H7.45208C8.1442 26.9377 8.70465 26.3785 8.70465 25.6877C8.70465 24.997 8.1442 24.4378 7.45208 24.4378H2.52315C2.51128 24.2335 2.50487 24.0258 2.50487 23.8129C2.50487 21.6817 3.49413 19.5401 4.45048 17.4695C5.29528 15.6379 6.09345 13.9101 6.09345 12.3122C6.09345 12.2706 6.09253 12.1875 6.09253 12.1875ZM22.4814 13.9375C23.1733 13.9375 23.7339 14.497 23.7339 15.1875C23.7339 15.878 23.1733 16.4375 22.4814 16.4375C21.7896 16.4375 21.229 15.878 21.229 15.1875C21.229 14.497 21.7896 13.9375 22.4814 13.9375ZM18.3483 18.4375C18.3483 19.128 18.9089 19.6875 19.6008 19.6875C20.2926 19.6875 20.8532 19.128 20.8532 18.4375C20.8532 17.747 20.2926 17.1875 19.6008 17.1875C18.9089 17.1875 18.3483 17.747 18.3483 18.4375ZM24.1722 20.5C24.8641 20.5 25.4247 19.9405 25.4247 19.25C25.4247 18.5595 24.8641 18 24.1722 18C23.4804 18 22.9198 18.5595 22.9198 19.25C22.9198 19.9405 23.4804 20.5 24.1722 20.5Z" fill="white"/>
</g>
<defs>
<clipPath id="clip0_36_2921">
<rect width="32" height="32" fill="white"/>
</clipPath>
</defs>
</svg>
