<svg width="32" height="39" viewBox="0 0 32 39" fill="none" xmlns="http://www.w3.org/2000/svg">
<g clip-path="url(#clip0_36_2929)">
<path d="M23.6509 26.1957L18.8798 32.559L22.6173 20.6513H28.5692C28.5692 20.6513 28.3452 20.9973 28.2012 21.155C27.6444 21.7702 27.6956 22.7199 28.3132 23.2774C28.934 23.8311 29.8876 23.7811 30.4443 23.1659C32.5148 20.8781 32.5178 17.4407 30.4572 15.1491L19.4077 1.54567C19.4077 1.54567 19.3693 1.49953 19.3501 1.48031C18.4926 0.538294 17.2702 0 15.9966 0L15.8174 0.00384496C14.6046 0.0538294 13.4494 0.584434 12.6334 1.488L1.52959 15.1607C-0.502377 17.4331 -0.511978 20.8397 1.51359 23.1197L12.5406 36.8846C13.4174 37.8614 14.5758 38.3997 15.8014 38.4457C15.843 38.4457 15.9102 38.4496 15.9102 38.4496C17.2574 38.4496 18.4829 37.9035 19.3406 36.9579C19.3725 36.923 19.4301 36.85 19.4301 36.85L26.07 27.9913C26.5692 27.3261 26.4317 26.3841 25.7628 25.8881C25.0941 25.3921 24.1501 25.5305 23.6509 26.1957ZM18.7896 5.56129L28.1368 17.07L28.1935 17.1353C28.3393 17.2961 28.4645 17.4677 28.5701 17.6478H22.6138L18.7896 5.56129ZM3.428 17.6478C3.53233 17.4702 3.65579 17.2998 3.79934 17.1412L3.85389 17.0772L12.9986 5.81064L9.30436 17.6478H3.428ZM19.4495 17.6478H12.4646L15.9333 6.53373L19.4495 17.6478ZM9.30178 20.6516L13.0181 32.6611L3.8468 21.2149L3.79117 21.15C3.6502 20.9939 3.52935 20.8258 3.4277 20.6516H9.30178ZM19.4545 20.6516L15.9332 31.8768L12.4595 20.6516H19.4545Z" fill="white"/>
</g>
<defs>
<clipPath id="clip0_36_2929">
<rect width="32" height="38.4496" fill="white"/>
</clipPath>
</defs>
</svg>
