<svg width="32" height="32" viewBox="0 0 32 32" fill="none" xmlns="http://www.w3.org/2000/svg">
<g clip-path="url(#clip0_36_2931)">
<path d="M23.3336 8.64825C25.9959 11.3021 27.4934 14.6586 28.3158 17.2039C27.5479 16.233 26.7381 15.275 25.9254 14.3807C25.4614 13.8698 24.6711 13.8315 24.1591 14.2945C23.6472 14.7576 23.6088 15.5464 24.0728 16.0574C26.2199 18.4175 28.3126 21.2086 29.6693 23.5208C29.903 23.9168 30.322 24.1404 30.751 24.1404C30.9653 24.1404 31.183 24.0829 31.3812 23.9679C31.794 23.7252 32.018 23.2845 31.999 22.8374C31.999 22.8086 31.9957 22.7511 31.9957 22.7511C31.9957 22.7511 31.839 20.3017 30.9238 17.1815C30.1493 14.55 28.6741 10.8902 25.9574 7.79555L26.6966 7.05785C27.1831 6.56921 27.1831 5.78042 26.6966 5.29178C26.2072 4.80635 25.4167 4.80317 24.9271 5.29178L24.1879 6.02951C21.0873 3.31494 17.4202 1.8459 14.7835 1.07305C11.6572 0.15968 9.20288 0 9.20288 0H9.10368C8.79009 0.0447103 8.7325 0.063872 8.7325 0.063872C8.7325 0.063872 8.29091 0.287423 8.14371 0.475845L8.13092 0.488619L7.95172 0.814366L7.87812 1.15928C7.89412 1.45628 7.90692 1.52015 7.90692 1.52015C7.90692 1.52015 7.97412 1.73093 7.99012 1.76606C7.99012 1.76606 8.15331 2.04709 8.27171 2.15568C8.4797 2.31536 8.4925 2.32174 8.4925 2.32174C11.91 4.32094 16.3258 8.18199 19.0681 11.0786L5.3438 24.8078C4.86062 24.5779 4.31984 24.4501 3.75026 24.4501C1.68314 24.4501 0 26.1299 0 28.1931C0 30.256 1.68314 31.936 3.75026 31.936C5.81739 31.936 7.50054 30.256 7.50054 28.1931C7.50054 27.6086 7.36294 27.0529 7.12295 26.5579L21.6344 12.0462C22.092 11.5864 22.1176 10.8614 21.7144 10.3728C21.7144 10.3728 21.5864 10.1237 21.4872 10.0151C19.7529 8.09894 17.2442 5.72932 14.6683 3.64708C17.2282 4.45826 20.6425 5.95923 23.3336 8.64825ZM3.74988 26.9459C4.43911 26.9459 4.99984 27.5054 4.99984 28.1933C4.99984 28.8813 4.43911 29.4408 3.74988 29.4408C3.06065 29.4408 2.49992 28.8813 2.49992 28.1933C2.49992 27.5054 3.06065 26.9459 3.74988 26.9459Z" fill="white"/>
</g>
<defs>
<clipPath id="clip0_36_2931">
<rect width="32" height="31.9359" fill="white"/>
</clipPath>
</defs>
</svg>
