<svg width="32" height="32" viewBox="0 0 32 32" fill="none" xmlns="http://www.w3.org/2000/svg">
<g clip-path="url(#clip0_36_2925)">
<path d="M0 27.0015C0 29.7567 2.2432 32 5.0016 32H27.0015C29.7567 32 32 29.7567 32 27.0015C32 26.3105 31.44 25.7505 30.7488 25.7505C30.0608 25.7505 29.5007 26.3105 29.5007 27.0015C29.5007 28.3775 28.3775 29.5007 27.0015 29.5007H5.0016C3.6224 29.5007 2.4992 28.3775 2.4992 27.0015V15.7504H11.6256V18.9376C11.6256 19.3824 11.8624 19.7952 12.2464 20.0192L15.3728 21.8304C15.568 21.9424 15.7824 22 16 22C16.2176 22 16.432 21.9424 16.6272 21.8304L19.7536 20.0192C20.1376 19.7952 20.3744 19.3824 20.3744 18.9376V15.7504H29.5007V20.7488C29.5007 21.44 30.0608 22 30.7488 22C31.44 22 32 21.44 32 20.7488V14.4992C32 13.808 31.44 13.2512 30.7488 13.2512H28.8927L31.8272 8.1888C31.936 8 31.9967 7.5616 31.9967 7.5616V3.1264C31.9967 2.6336 31.7087 2.1888 31.264 1.9872L29.6255 1.2416C27.8112 0.4192 25.8815 0 23.888 0H8.1088C6.1152 0 4.1856 0.4192 2.368 1.2416L0.7328 1.9872C0.288 2.1888 0 2.6336 0 3.1264V7.5616C0 7.5616 0.0576 8 0.1696 8.1888L3.1008 13.2512H1.2512C0.56 13.2512 0 13.808 0 14.4992V27.0015ZM2.5 5.6875V3.92992L3.40337 3.51905C4.89167 2.84265 6.47395 2.5 8.10822 2.5H11.625V5.6875H2.5ZM16 8.60472L14.125 7.47963V2.5H17.875V7.47963L16 8.60472ZM23.8864 2.5H20.375V5.6875H29.4953V3.92992L28.5915 3.51905C27.104 2.84265 25.5208 2.5 23.8864 2.5ZM16.6421 11.1344L19.7686 9.25922C20.1439 9.03345 20.3743 8.62642 20.3743 8.1875H28.9385L26.006 13.25H5.98925L3.05687 8.1875H11.6263C11.6263 8.62642 11.8566 9.03345 12.2319 9.25922L15.3558 11.1344C15.5551 11.2533 15.7777 11.3126 16.0002 11.3126C16.2229 11.3126 16.4454 11.2533 16.6421 11.1344ZM17.875 18.2175L16 19.3049L14.125 18.2175V15.75H17.875V18.2175Z" fill="white"/>
</g>
<defs>
<clipPath id="clip0_36_2925">
<rect width="32" height="32" fill="white"/>
</clipPath>
</defs>
</svg>
