<svg width="22" height="22" viewBox="0 0 22 22" fill="none" xmlns="http://www.w3.org/2000/svg">
<path d="M9.4739 10.2692C8.92176 10.6687 8.18812 10.6666 7.64258 10.2682C7.09262 9.8666 6.87374 9.18917 7.08492 8.54239L7.66678 6.76268L6.14232 5.66146C5.59456 5.2662 5.36798 4.56446 5.57696 3.91557C5.78594 3.26985 6.3788 2.83549 7.05082 2.83549H8.95036L9.5245 1.06846C9.73348 0.429074 10.3263 0 10.9995 0C11.6726 0 12.2643 0.429074 12.4733 1.06635L13.0486 2.83549H14.9481C15.6201 2.83549 16.213 3.26985 16.422 3.91557C16.6309 4.56446 16.4044 5.2662 15.8566 5.66146L14.3322 6.76268L14.914 8.54239C15.1252 9.18917 14.9063 9.8666 14.3553 10.2682C14.0825 10.4679 13.7613 10.5683 13.439 10.5683C13.1212 10.5683 12.8022 10.47 12.5305 10.2735L10.9995 9.14902L9.4739 10.2692ZM10.9995 7.39052C11.3284 7.39052 11.6427 7.49221 11.9086 7.68461L13.1147 8.57015L12.6581 7.1748C12.4488 6.53413 12.6761 5.83775 13.2232 5.44325L14.4535 4.55511H12.9358C12.2575 4.55511 11.6648 4.13664 11.4617 3.51475L10.9995 2.09219L10.5381 3.51346C10.3343 4.13664 9.74163 4.55511 9.06328 4.55511H7.54564L8.77593 5.44325C9.32301 5.83775 9.55028 6.53413 9.34097 7.1748L8.88438 8.57015L10.0849 7.68851C10.3564 7.49221 10.6707 7.39052 10.9995 7.39052ZM7.94004 21.2677C8.2612 21.2677 8.58238 21.1673 8.85514 20.9675C9.4062 20.566 9.62508 19.8884 9.4139 19.2417L8.83206 17.4619L10.3565 16.3608C10.9043 15.9655 11.1308 15.2638 10.9219 14.6159C10.7129 13.9691 10.12 13.5358 9.448 13.5358H7.54848L6.97322 11.7656C6.76424 11.1283 6.1725 10.6993 5.49936 10.6993C4.82622 10.6993 4.23338 11.1283 4.0244 11.7677L3.45026 13.5358H1.55072C0.878687 13.5358 0.28584 13.9691 0.0768604 14.6159C-0.13212 15.2638 0.0944589 15.9655 0.642208 16.3608L2.16667 17.4619L1.58482 19.2417C1.37364 19.8884 1.59252 20.566 2.14357 20.9675C2.68802 21.366 3.42166 21.3681 3.9738 20.9687L5.49936 19.8484L7.03042 20.9728C7.3021 21.1694 7.62106 21.2677 7.94004 21.2677ZM18.615 19.2692L17.4083 18.3835C17.1421 18.1912 16.8286 18.0898 16.4997 18.0898C16.1709 18.0898 15.8563 18.1912 15.5846 18.3878L14.3845 19.2692L14.841 17.8741C15.05 17.2337 14.8234 16.5373 14.2756 16.142L13.0458 15.2543H14.5627C15.2414 15.2543 15.8343 14.8357 16.0378 14.2122L16.4997 12.7918L16.9617 14.2143C17.1652 14.8357 17.757 15.2543 18.4358 15.2543H20.2903C20.3508 15.659 20.695 15.974 21.1185 15.9845C21.5915 15.9962 21.9875 15.621 21.9995 15.1465C22.0095 14.7195 21.8456 14.2999 21.5498 13.9966C21.2593 13.6986 20.8688 13.5358 20.4475 13.5358H18.5478L17.9738 11.7656C17.7648 11.1283 17.1729 10.6993 16.4997 10.6993C15.8266 10.6993 15.2337 11.1283 15.0247 11.7677L14.4505 13.5358H12.5509C11.8788 13.5358 11.2859 13.9691 11.0769 14.6159C10.8679 15.2638 11.0945 15.9655 11.6423 16.3608L13.1668 17.4619L12.585 19.2417C12.3738 19.8884 12.5927 20.566 13.1426 20.9675C13.6882 21.366 14.4219 21.3681 14.9741 20.9687L16.4997 19.8484L18.0308 20.9728C18.3026 21.1694 18.6216 21.2677 18.9395 21.2677C19.2606 21.2677 19.5818 21.1673 19.8558 20.9675C20.4068 20.566 20.6258 19.8884 20.4133 19.2417L19.8943 17.6512C19.7468 17.1998 19.2606 16.9537 18.8096 17.1016C18.3588 17.2485 18.1123 17.7337 18.2598 18.1848L18.615 19.2692ZM5.49944 18.0898C5.17063 18.0898 4.85633 18.1915 4.58484 18.3878L3.38427 19.2694L3.84087 17.8741C4.05018 17.2334 3.82291 16.5377 3.27582 16.1426L2.04554 15.2538H3.56318C4.24152 15.2538 4.83421 14.836 5.038 14.2128L5.49944 12.7916L5.96158 14.2141C6.16466 14.836 6.75735 15.2538 7.43569 15.2538H8.95335L7.72307 16.1426C7.17596 16.5377 6.94869 17.2334 7.158 17.8741L7.61461 19.2694L6.40851 18.3839C6.14256 18.1915 5.82825 18.0898 5.49944 18.0898Z" fill="#F1A640"/>
</svg>
