<svg width="20" height="20" viewBox="0 0 20 20" fill="none" xmlns="http://www.w3.org/2000/svg">
<path d="M1.32718 7.78346L5.62831 6.9205C5.90482 6.86502 6.14504 6.69537 6.2898 6.45333L8.03125 3.54172L9.14179 1.68494C9.52992 1.03601 10.4701 1.03601 10.8582 1.68495L13.7102 6.45333C13.8549 6.69537 14.0952 6.86502 14.3717 6.9205L18.6728 7.78346C19.4549 7.94038 19.7475 8.90495 19.1843 9.4699L15.6268 13.0387C15.3913 13.2749 15.2891 13.6131 15.3544 13.9402L16.1624 17.9932C16.3252 18.8096 15.4774 19.4558 14.7333 19.0826L10.4483 16.9333C10.1662 16.7917 9.83379 16.7917 9.55165 16.9333L5.26664 19.0826C4.52255 19.4558 3.67484 18.8096 3.8376 17.9932L4.64563 13.9402C4.71085 13.6131 4.60866 13.2749 4.37316 13.0387L0.815668 9.4699C0.252503 8.90495 0.545065 7.94038 1.32718 7.78346Z" fill="#F7B307"/>
<path fill-rule="evenodd" clip-rule="evenodd" d="M1.22882 7.29322L5.52995 6.43027C5.6682 6.40253 5.78832 6.3177 5.8607 6.19669L8.71268 1.4283C9.29488 0.454889 10.7051 0.454893 11.2873 1.4283L14.1393 6.19669C14.2117 6.3177 14.3318 6.40253 14.47 6.43027L18.7712 7.29322C19.9443 7.5286 20.3832 8.97546 19.5384 9.8229L15.9809 13.3917C15.8632 13.5098 15.8121 13.6789 15.8447 13.8424L16.6527 17.8954C16.8969 19.12 15.6253 20.0893 14.5092 19.5295L10.2242 17.3802C10.0831 17.3094 9.91689 17.3094 9.77582 17.3802L5.49082 19.5295C4.37467 20.0893 3.10311 19.12 3.34725 17.8954L4.15528 13.8424C4.18789 13.6789 4.1368 13.5098 4.01905 13.3917L0.461555 9.8229C-0.383194 8.97546 0.05565 7.5286 1.22882 7.29322ZM5.62831 6.9205L1.32718 7.78346C0.545065 7.94038 0.252502 8.90495 0.815668 9.4699L4.37316 13.0387C4.60866 13.2749 4.71085 13.6131 4.64563 13.9402L3.8376 17.9932C3.67484 18.8096 4.52255 19.4558 5.26664 19.0826L9.55165 16.9333C9.83379 16.7917 10.1662 16.7917 10.4483 16.9333L14.7333 19.0826C15.4774 19.4558 16.3252 18.8096 16.1624 17.9932L15.3544 13.9402C15.2891 13.6131 15.3913 13.2749 15.6268 13.0387L19.1843 9.4699C19.7475 8.90495 19.4549 7.94038 18.6728 7.78346L14.3717 6.9205C14.0952 6.86502 13.8549 6.69537 13.7102 6.45333L10.8582 1.68495C10.4701 1.03601 9.52991 1.03601 9.14178 1.68494L6.2898 6.45333C6.14504 6.69537 5.90482 6.86502 5.62831 6.9205Z" fill="#5B3303"/>
<path fill-rule="evenodd" clip-rule="evenodd" d="M9.13518 10.2897C9.25132 10.3644 9.28495 10.5191 9.21029 10.6352L6.96029 14.1352C6.88562 14.2514 6.73095 14.285 6.6148 14.2103C6.49866 14.1357 6.46503 13.981 6.5397 13.8648L8.7897 10.3648C8.86436 10.2487 9.01904 10.2151 9.13518 10.2897Z" fill="#FFC530"/>
<path d="M19.1843 9.4699L16.1537 12.5102C15.8412 12.8237 15.3597 12.8944 14.9703 12.6841L9.99999 10L13.9819 6.75C14.0969 6.83324 14.2295 6.89197 14.3717 6.9205L18.6728 7.78346C19.4549 7.94038 19.7475 8.90495 19.1843 9.4699Z" fill="#FFC01D"/>
<path fill-rule="evenodd" clip-rule="evenodd" d="M16.2481 8.71902C16.2652 8.85602 16.168 8.98097 16.031 8.9981L12.031 9.4981C11.894 9.51522 11.7691 9.41804 11.7519 9.28104C11.7348 9.14403 11.832 9.01908 11.969 9.00196L15.969 8.50196C16.106 8.48483 16.2309 8.58201 16.2481 8.71902Z" fill="#FFD363"/>
<path d="M9.55165 16.9333L5.26665 19.0826C4.90391 19.2645 4.51655 19.2042 4.23363 19L9.99999 10L19.4768 8.75C19.4815 9.00406 19.39 9.26362 19.1843 9.4699L15.6268 13.0387C15.3913 13.2749 15.2891 13.6131 15.3544 13.9402L16.1624 17.9932C16.3252 18.8096 15.4774 19.4558 14.7334 19.0826L10.4483 16.9333C10.1662 16.7917 9.8338 16.7917 9.55165 16.9333Z" fill="#CF9500"/>
<path d="M15.3544 13.9402L16.1624 17.9932C16.2458 18.4116 16.0638 18.7853 15.7664 19L9.99999 10L15.6269 13.0387C15.3914 13.2749 15.2892 13.6131 15.3544 13.9402Z" fill="#B97D08"/>
<path d="M1.32716 7.78346L5.62829 6.9205C5.9048 6.86502 6.14502 6.69537 6.28978 6.45333L9.14176 1.68494C9.33582 1.36048 9.66788 1.19825 9.99995 1.19824V10L0.559319 8.5C0.653339 8.15722 0.925783 7.86399 1.32716 7.78346Z" fill="#FFD056"/>
<path fill-rule="evenodd" clip-rule="evenodd" d="M9.5049 2.50005C9.64294 2.50276 9.75266 2.61686 9.74995 2.7549L9.62495 9.1299C9.62356 9.20084 9.59209 9.26784 9.53839 9.31422C9.48469 9.36059 9.41382 9.38196 9.34343 9.373L2.46843 8.498C2.33147 8.48057 2.23456 8.3554 2.252 8.21844C2.26943 8.08147 2.39459 7.98457 2.53156 8.002L9.1305 8.84187L9.25004 2.7451C9.25275 2.60706 9.36685 2.49734 9.5049 2.50005Z" fill="#FFE39A"/>
<path fill-rule="evenodd" clip-rule="evenodd" d="M7.502 8.88692C7.51943 8.74995 7.64459 8.65305 7.78156 8.67048L9.40656 8.8773C9.54353 8.89473 9.64043 9.0199 9.623 9.15687C9.60556 9.29383 9.4804 9.39073 9.34343 9.3733L7.71843 9.16648C7.58147 9.14905 7.48456 9.02389 7.502 8.88692Z" fill="#FFFBF0"/>
<path d="M10.25 11.875C10.25 12.0821 10.0821 12.25 9.87499 12.25C9.66789 12.25 9.49999 12.0821 9.49999 11.875C9.49999 11.6679 9.66789 11.5 9.87499 11.5C10.0821 11.5 10.25 11.6679 10.25 11.875Z" fill="#BA8600"/>
<path d="M11 12.875C11 12.944 10.944 13 10.875 13C10.806 13 10.75 12.944 10.75 12.875C10.75 12.806 10.806 12.75 10.875 12.75C10.944 12.75 11 12.806 11 12.875Z" fill="#BA8600"/>
<path d="M9.24999 13.875C9.24999 13.944 9.19403 14 9.12499 14C9.05596 14 8.99999 13.944 8.99999 13.875C8.99999 13.806 9.05596 13.75 9.12499 13.75C9.19403 13.75 9.24999 13.806 9.24999 13.875Z" fill="#BA8600"/>
<path d="M10.75 13.625C10.75 13.694 10.694 13.75 10.625 13.75C10.556 13.75 10.5 13.694 10.5 13.625C10.5 13.556 10.556 13.5 10.625 13.5C10.694 13.5 10.75 13.556 10.75 13.625Z" fill="#BA8600"/>
<path d="M12.5 14.625C12.5 14.694 12.444 14.75 12.375 14.75C12.306 14.75 12.25 14.694 12.25 14.625C12.25 14.556 12.306 14.5 12.375 14.5C12.444 14.5 12.5 14.556 12.5 14.625Z" fill="#BA8600"/>
<path d="M10.75 11.875C10.75 11.944 10.694 12 10.625 12C10.556 12 10.5 11.944 10.5 11.875C10.5 11.806 10.556 11.75 10.625 11.75C10.694 11.75 10.75 11.806 10.75 11.875Z" fill="#BA8600"/>
<path d="M9.99999 10.875C9.99999 10.944 9.94403 11 9.87499 11C9.80596 11 9.74999 10.944 9.74999 10.875C9.74999 10.806 9.80596 10.75 9.87499 10.75C9.94403 10.75 9.99999 10.806 9.99999 10.875Z" fill="#BA8600"/>
<path d="M11.25 14.375C11.25 14.444 11.194 14.5 11.125 14.5C11.056 14.5 11 14.444 11 14.375C11 14.306 11.056 14.25 11.125 14.25C11.194 14.25 11.25 14.306 11.25 14.375Z" fill="#BA8600"/>
<path d="M10.5 12.75C10.5 12.8881 10.3881 13 10.25 13C10.1119 13 9.99999 12.8881 9.99999 12.75C9.99999 12.6119 10.1119 12.5 10.25 12.5C10.3881 12.5 10.5 12.6119 10.5 12.75Z" fill="#BA8600"/>
<path d="M10.25 13.75C10.25 13.8881 10.1381 14 9.99999 14C9.86192 14 9.74999 13.8881 9.74999 13.75C9.74999 13.6119 9.86192 13.5 9.99999 13.5C10.1381 13.5 10.25 13.6119 10.25 13.75Z" fill="#BA8600"/>
<path d="M11.75 13.75C11.75 13.8881 11.6381 14 11.5 14C11.3619 14 11.25 13.8881 11.25 13.75C11.25 13.6119 11.3619 13.5 11.5 13.5C11.6381 13.5 11.75 13.6119 11.75 13.75Z" fill="#BA8600"/>
<path d="M9.49999 13C9.49999 13.1381 9.38806 13.25 9.24999 13.25C9.11192 13.25 8.99999 13.1381 8.99999 13C8.99999 12.8619 9.11192 12.75 9.24999 12.75C9.38806 12.75 9.49999 12.8619 9.49999 13Z" fill="#BA8600"/>
</svg>
