<svg width="96" height="96" viewBox="0 0 96 96" fill="none" xmlns="http://www.w3.org/2000/svg">
<path d="M88 48C88 70.0914 70.0914 88 48 88C25.9086 88 8 70.0914 8 48C8 25.9086 25.9086 8 48 8C70.0914 8 88 25.9086 88 48Z" fill="#DEA9FF"/>
<path fill-rule="evenodd" clip-rule="evenodd" d="M90 48C90 71.196 71.196 90 48 90C24.804 90 6 71.196 6 48C6 24.804 24.804 6 48 6C71.196 6 90 24.804 90 48ZM48 88C70.0914 88 88 70.0914 88 48C88 25.9086 70.0914 8 48 8C25.9086 8 8 25.9086 8 48C8 70.0914 25.9086 88 48 88Z" fill="#170460"/>
<path d="M47 38C47 39.1046 46.1046 40 45 40C43.8954 40 43 39.1046 43 38C43 36.8954 43.8954 36 45 36C46.1046 36 47 36.8954 47 38Z" fill="#ECCCFF"/>
<path d="M58 46C58 47.1046 57.1046 48 56 48C54.8954 48 54 47.1046 54 46C54 44.8954 54.8954 44 56 44C57.1046 44 58 44.8954 58 46Z" fill="#FCFFFF"/>
<path d="M38 44C38 45.1046 37.1046 46 36 46C34.8954 46 34 45.1046 34 44C34 42.8954 34.8954 42 36 42C37.1046 42 38 42.8954 38 44Z" fill="#ECCCFF"/>
<path d="M29 50.5C29 51.3284 28.3284 52 27.5 52C26.6716 52 26 51.3284 26 50.5C26 49.6716 26.6716 49 27.5 49C28.3284 49 29 49.6716 29 50.5Z" fill="#ECCCFF"/>
<path d="M64 53.5C64 54.3284 63.3284 55 62.5 55C61.6716 55 61 54.3284 61 53.5C61 52.6716 61.6716 52 62.5 52C63.3284 52 64 52.6716 64 53.5Z" fill="#ECCCFF"/>
<path d="M62 36.5C62 37.3284 61.3284 38 60.5 38C59.6716 38 59 37.3284 59 36.5C59 35.6716 59.6716 35 60.5 35C61.3284 35 62 35.6716 62 36.5Z" fill="#ECCCFF"/>
<path d="M49 30.5C49 31.3284 48.3284 32 47.5 32C46.6716 32 46 31.3284 46 30.5C46 29.6716 46.6716 29 47.5 29C48.3284 29 49 29.6716 49 30.5Z" fill="#ECCCFF"/>
<path d="M38 34.5C38 35.3284 37.3284 36 36.5 36C35.6716 36 35 35.3284 35 34.5C35 33.6716 35.6716 33 36.5 33C37.3284 33 38 33.6716 38 34.5Z" fill="#ECCCFF"/>
<path d="M61 61.5C61 62.3284 60.3284 63 59.5 63C58.6716 63 58 62.3284 58 61.5C58 60.6716 58.6716 60 59.5 60C60.3284 60 61 60.6716 61 61.5Z" fill="#ECCCFF"/>
<path d="M44 67.5C44 68.3284 43.3284 69 42.5 69C41.6716 69 41 68.3284 41 67.5C41 66.6716 41.6716 66 42.5 66C43.3284 66 44 66.6716 44 67.5Z" fill="#ECCCFF"/>
<path d="M40 54C40 55.1046 39.1046 56 38 56C36.8954 56 36 55.1046 36 54C36 52.8954 36.8954 52 38 52C39.1046 52 40 52.8954 40 54Z" fill="#ECCCFF"/>
<path d="M49 47C49 48.6569 47.6569 50 46 50C44.3431 50 43 48.6569 43 47C43 45.3431 44.3431 44 46 44C47.6569 44 49 45.3431 49 47Z" fill="#FCFFFF"/>
<path d="M55 55.5C55 56.8807 53.8807 58 52.5 58C51.1193 58 50 56.8807 50 55.5C50 54.1193 51.1193 53 52.5 53C53.8807 53 55 54.1193 55 55.5Z" fill="#FCFFFF"/>
<path d="M46 59.5C46 60.8807 44.8807 62 43.5 62C42.1193 62 41 60.8807 41 59.5C41 58.1193 42.1193 57 43.5 57C44.8807 57 46 58.1193 46 59.5Z" fill="#ECCCFF"/>
<path fill-rule="evenodd" clip-rule="evenodd" d="M35.9877 14.0122C30.67 14.0122 25.6986 15.4946 21.4641 18.0687C13.9501 24.7351 8.96412 34.1878 8.12549 44.8073C8.84363 52.0533 12.3241 58.487 17.4991 63.0405C17.7756 63.6002 18.0671 64.1512 18.373 64.693C17.4796 65.1118 17.0241 66.1212 17.304 67.0697C19.0032 72.8289 22.2789 77.9127 26.6321 81.8205C32.8137 85.7343 40.1422 88 47.9999 88C55.8581 88 63.1869 85.734 69.3688 81.8199C75.5179 76.2998 79.5177 68.4332 79.9592 59.6289C81.2796 56.0009 81.9999 52.0846 81.9999 48C81.9999 45.775 81.7861 43.5999 81.3781 41.4941C82.2968 41.3152 82.9753 40.5176 82.9942 39.5713C82.998 39.3813 82.9999 39.1908 82.9999 39C82.9999 23.536 70.4639 11 54.9999 11C49.9274 11 45.1699 12.3489 41.0666 14.7075C40.1681 14.8936 39.2827 15.1152 38.4117 15.3707C38.1448 14.5884 37.4124 14.035 36.559 14.0179C36.369 14.0141 36.1786 14.0122 35.9877 14.0122ZM36.4389 16.016C36.2888 16.0135 36.1384 16.0122 35.9877 16.0122C33.9192 16.0122 31.9072 16.2538 29.9782 16.7102C18.5162 19.4223 9.98772 29.7213 9.98772 42.0122C9.98772 48.0518 12.047 53.6104 15.5017 58.0242C14.5254 54.8554 13.9999 51.4891 13.9999 48C13.9999 36.5597 19.6502 26.439 28.3125 20.2765C29.0838 19.6672 29.8926 19.1033 30.735 18.5888C32.3696 17.5903 34.1303 16.7781 35.9877 16.1815C35.9956 16.1789 36.0034 16.1764 36.0113 16.1739C36.1534 16.1204 36.2959 16.0677 36.4389 16.016ZM20.0156 32.4677C17.4572 37.0673 15.9999 42.3634 15.9999 48C15.9999 52.9409 17.1197 57.6203 19.1193 61.7981C23.6599 65.6729 29.5506 68.0122 35.9877 68.0122C39.6779 68.0122 43.1886 67.2434 46.3682 65.8573C48.3974 64.9727 50.2918 63.8367 52.012 62.4885C50.0626 63.2121 47.9961 63.6946 45.8486 63.8999C45.0717 63.9742 44.2841 64.0122 43.4877 64.0122C29.9567 64.0122 18.9877 53.0432 18.9877 39.5122C18.9877 37.0635 19.347 34.6987 20.0156 32.4677ZM25.7551 71.0037C24.1865 69.4866 22.7727 67.8106 21.5396 66.0015C25.7577 68.5474 30.7016 70.0122 35.9877 70.0122C42.4959 70.0122 48.4904 67.7893 53.2457 64.0627C54.0215 63.4548 54.2387 62.3723 53.7575 61.5121C53.2763 60.6519 52.2402 60.2706 51.3161 60.6135C48.8807 61.5174 46.2443 62.0122 43.4877 62.0122C31.0613 62.0122 20.9877 51.9386 20.9877 39.5122C20.9877 32.3713 24.3151 26.005 29.5055 21.8825C31.5715 20.4169 33.8189 19.1902 36.2076 18.2428C30.5523 23.366 26.9999 30.7681 26.9999 39C26.9999 45.5081 29.2228 51.5027 32.9494 56.258C33.5574 57.0338 34.6399 57.251 35.5 56.7698C36.3602 56.2886 36.7416 55.2524 36.3986 54.3284C35.4947 51.893 34.9999 49.2566 34.9999 46.5C34.9999 34.0736 45.0735 24 57.4999 24C67.2737 24 75.5963 30.2333 78.7008 38.9452C79.5462 41.8163 79.9999 44.8552 79.9999 48C79.9999 49.7008 79.8672 51.3706 79.6116 52.9997C77.6845 40.7174 68.7713 30.7563 57.0695 27.3039C56.1139 27.022 55.0965 27.4864 54.6835 28.3931C54.2705 29.2998 54.5878 30.3723 55.4277 30.9082C62.39 35.3506 66.9999 43.1376 66.9999 52C66.9999 65.8071 55.807 77 41.9999 77C35.7996 77 30.1256 74.7435 25.7551 71.0037ZM39.6469 78.8988C40.4224 78.9658 41.2071 79 41.9999 79C56.9116 79 68.9999 66.9117 68.9999 52C68.9999 44.8981 66.258 38.4366 61.7749 33.6164C60.2146 31.9388 58.4435 30.46 56.5035 29.2222C58.8056 29.9014 60.9925 30.8493 63.0278 32.0295C71.9794 37.2206 77.9999 46.9072 77.9999 57.9999C77.9999 58.4107 77.9917 58.8195 77.9753 59.2262C73.4283 71.3618 61.7229 80 47.9999 80C45.1101 80 42.3098 79.617 39.6469 78.8988ZM80.607 38.3367C80.6846 38.5564 80.7592 38.7775 80.8307 39C80.8873 39.1762 80.9419 39.3533 80.9946 39.5312C80.9982 39.3546 80.9999 39.1775 80.9999 39C80.9999 36.9315 80.7584 34.9194 80.3019 32.9904C77.5898 21.5285 67.2908 13 54.9999 13C52.5139 13 50.1094 13.3489 47.8327 14.0004C47.8884 14.0001 47.9441 14 47.9999 14C63.4206 14 76.4436 24.2661 80.607 38.3367ZM41.7874 16.6026C43.7971 16.2073 45.8743 16 47.9999 16C57.4425 16 65.9299 20.0899 71.7873 26.5949C67.7655 23.7031 62.8316 22 57.4999 22C43.969 22 32.9999 32.969 32.9999 46.5C32.9999 47.2964 33.0379 48.084 33.1122 48.8609C33.3175 51.0083 33.8001 53.0749 34.5236 55.0243C33.1755 53.3041 32.0394 51.4097 31.1548 49.3805C29.7687 46.2008 28.9999 42.6902 28.9999 39C28.9999 29.4643 34.1333 21.1276 41.7874 16.6026ZM76.9775 65.7938C73.5461 78.5837 61.8727 88 47.9999 88C36.9073 88 27.2208 81.9795 22.0296 73.028C20.8493 70.9927 19.9014 68.8058 19.2222 66.5037C20.46 68.4436 21.9389 70.2148 23.6165 71.7751C23.8747 72.0153 24.1377 72.2504 24.4051 72.4804C30.5194 78.3748 38.8363 82 47.9999 82C60.2541 82 70.9942 75.5171 76.9775 65.7938Z" fill="#8634B9"/>
<path fill-rule="evenodd" clip-rule="evenodd" d="M48 88C70.0914 88 88 70.0914 88 48C88 25.9086 70.0914 8 48 8C25.9086 8 8 25.9086 8 48C8 70.0914 25.9086 88 48 88ZM48 82C66.7777 82 82 66.7777 82 48C82 29.2223 66.7777 14 48 14C29.2223 14 14 29.2223 14 48C14 66.7777 29.2223 82 48 82Z" fill="#A143DA"/>
<path fill-rule="evenodd" clip-rule="evenodd" d="M41.9999 79C56.9116 79 68.9999 66.9117 68.9999 52C68.9999 42.4263 64.0171 34.0164 56.5035 29.2222C68.9304 32.8885 77.9999 44.3851 77.9999 57.9999C77.9999 74.5685 64.5684 87.9999 47.9999 87.9999C34.3851 87.9999 22.8885 78.9306 19.2222 66.5037C24.0164 74.0173 32.4263 79 41.9999 79Z" fill="#C25EFF"/>
<path fill-rule="evenodd" clip-rule="evenodd" d="M36.519 16.0175C36.3423 16.014 36.1653 16.0122 35.9878 16.0122C21.6284 16.0122 9.98779 27.6528 9.98779 42.0122C9.98779 56.3716 21.6284 68.0122 35.9878 68.0122C42.033 68.0122 47.5963 65.9491 52.0121 62.4885C49.3574 63.4738 46.4854 64.0122 43.4878 64.0122C29.9568 64.0122 18.9878 53.0432 18.9878 39.5122C18.9878 28.4022 26.3827 19.0195 36.519 16.0175Z" fill="#EBCAFF"/>
<path fill-rule="evenodd" clip-rule="evenodd" d="M80.9947 39.5312C80.9982 39.3546 81 39.1775 81 39C81 24.6406 69.3594 13 55 13C40.6406 13 29 24.6406 29 39C29 45.0452 31.0631 50.6085 34.5237 55.0243C33.5384 52.3696 33 49.4976 33 46.5C33 32.969 43.969 22 57.5 22C68.61 22 77.9928 29.395 80.9947 39.5312Z" fill="#CE7CFF"/>
<path fill-rule="evenodd" clip-rule="evenodd" d="M48 11C27.5655 11 11 27.5655 11 48C11 68.4345 27.5655 85 48 85C68.4345 85 85 68.4345 85 48C85 27.5655 68.4345 11 48 11ZM9 48C9 26.4609 26.4609 9 48 9C69.5391 9 87 26.4609 87 48C87 69.5391 69.5391 87 48 87C26.4609 87 9 69.5391 9 48Z" fill="#D898FF"/>
<path fill-rule="evenodd" clip-rule="evenodd" d="M48 11C27.5655 11 11 27.5655 11 48C11 48.5523 10.5523 49 10 49C9.44772 49 9 48.5523 9 48C9 26.4609 26.4609 9 48 9C48.5523 9 49 9.44772 49 10C49 10.5523 48.5523 11 48 11Z" fill="#F9F0FF"/>
<path fill-rule="evenodd" clip-rule="evenodd" d="M51.9755 17.7797C52.0971 18.3185 51.759 18.8538 51.2203 18.9754C36.3737 22.3279 32.9854 35.2292 32.4971 41.5767C32.4547 42.1274 31.974 42.5394 31.4234 42.4971C30.8727 42.4547 30.4606 41.974 30.503 41.4233C31.0147 34.7708 34.6264 20.6721 50.7798 17.0246C51.3185 16.9029 51.8538 17.241 51.9755 17.7797Z" fill="#DDA5FF"/>
<path fill-rule="evenodd" clip-rule="evenodd" d="M14.9536 43.0011C15.5052 42.9754 15.9733 43.4019 15.9989 43.9535C16.3119 50.6819 22.1589 62.0908 37.6544 64.512C38.2001 64.5972 38.5733 65.1087 38.488 65.6544C38.4028 66.2 37.8913 66.5733 37.3456 66.488C20.8412 63.9092 14.3548 51.6514 14.0011 44.0465C13.9754 43.4948 14.4019 43.0267 14.9536 43.0011Z" fill="#F9F0FF"/>
<path fill-rule="evenodd" clip-rule="evenodd" d="M67.3243 37.2628C67.7315 36.8897 68.364 36.9172 68.7372 37.3243C71.7044 40.5612 73.6186 46.3252 73.8742 52.4584C74.1309 58.6193 72.7251 65.3666 68.8001 70.6C68.4687 71.0418 67.8419 71.1314 67.4001 70.8C66.9582 70.4686 66.8687 69.8418 67.2001 69.4C70.775 64.6334 72.1192 58.3807 71.8759 52.5416C71.6315 46.6748 69.7958 41.4388 67.2629 38.6757C66.8897 38.2686 66.9172 37.636 67.3243 37.2628Z" fill="#D287FF"/>
</svg>
