<svg width="24" height="26" viewBox="0 0 24 26" fill="none" xmlns="http://www.w3.org/2000/svg">
<path d="M10.6304 13.8896L10.6304 20.5136C10.6304 21.2176 10.0544 21.7936 9.35039 21.7936C8.64639 21.7936 8.07039 21.2176 8.07039 20.5136L8.07039 13.7808C8.07039 12.6544 7.30879 11.6368 6.20799 11.4128C5.86467 11.3404 5.50954 11.3455 5.16841 11.4276C4.82728 11.5097 4.50874 11.6668 4.23596 11.8874C3.96318 12.1081 3.74302 12.3868 3.59149 12.7033C3.43996 13.0197 3.36088 13.366 3.35999 13.7168C3.36041 14.3414 3.60868 14.9402 4.05028 15.3818C4.49187 15.8234 5.09068 16.0716 5.71519 16.072L5.71519 18.632C4.41199 18.6308 3.16252 18.1125 2.24102 17.191C1.31952 16.2695 0.801258 15.0201 0.799987 13.7168C0.800936 13.0172 0.951137 12.3257 1.24056 11.6887C1.52999 11.0517 1.95198 10.4837 2.47836 10.0228C3.00474 9.5618 3.6234 9.21844 4.29304 9.01559C4.96268 8.81274 5.66789 8.75508 6.36159 8.84645C8.83839 9.16005 10.6304 11.3872 10.6304 13.8896ZM23.6928 7.29125C23.8378 8.0057 23.8223 8.74345 23.6474 9.45119C23.4725 10.1589 23.1426 10.819 22.6815 11.3836C22.2203 11.9483 21.6395 12.4034 20.9809 12.7162C20.3224 13.0289 19.6026 13.1915 18.8736 13.192L18.8736 10.632C19.2296 10.6316 19.5809 10.5506 19.9011 10.3951C20.2213 10.2395 20.5022 10.0135 20.7226 9.73396C20.9431 9.45441 21.0974 9.12858 21.1739 8.78091C21.2505 8.43324 21.2474 8.07274 21.1648 7.72645C21.066 7.30446 20.8513 6.91846 20.5448 6.612C20.2384 6.30554 19.8524 6.09082 19.4304 5.99205C19.0838 5.90944 18.7229 5.90627 18.3749 5.98276C18.0269 6.05926 17.7006 6.21344 17.4206 6.43379C17.1405 6.65413 16.9139 6.93494 16.7577 7.2552C16.6015 7.57547 16.5197 7.92691 16.5184 8.28325L16.5184 24.52C16.5184 25.224 15.9424 25.8 15.2384 25.8C14.5344 25.8 13.9584 25.224 13.9584 24.52L13.9584 8.27685C13.959 7.54782 14.1215 6.82803 14.4343 6.1695C14.747 5.51096 15.2022 4.93013 15.7668 4.46898C16.3315 4.00784 16.9915 3.67789 17.6992 3.50299C18.407 3.32809 19.1447 3.3126 19.8592 3.45765C21.7728 3.83525 23.3152 5.37765 23.6928 7.29125Z" fill="white"/>
<path d="M11.7824 5.12805L11.7824 6.45285C11.7824 7.15685 11.2064 7.73285 10.5024 7.73285C9.79839 7.73285 9.22239 7.15685 9.22239 6.45285L9.22239 5.01925C9.22239 3.89285 8.46079 2.87525 7.35999 2.65125C7.01667 2.57884 6.66154 2.58386 6.32041 2.66596C5.97928 2.74805 5.66074 2.90515 5.38796 3.12583C5.11518 3.34651 4.89502 3.62521 4.74349 3.94167C4.59196 4.25813 4.51288 4.60439 4.51199 4.95525L1.95199 4.95525C1.95294 4.25556 2.10314 3.56413 2.39256 2.9271C2.68199 2.29008 3.10398 1.72213 3.63036 1.26117C4.15674 0.800205 4.7754 0.456837 5.44504 0.253988C6.11468 0.0511396 6.81989 -0.0065234 7.51359 0.08485C9.99039 0.40485 11.7824 2.63205 11.7824 5.12805Z" fill="white"/>
</svg>
